<svg xmlns="http://www.w3.org/2000/svg" xmlns:xlink="http://www.w3.org/1999/xlink" width="250" zoomAndPan="magnify" viewBox="0 0 187.5 74.999997" height="100" preserveAspectRatio="xMidYMid meet" version="1.0"><defs><g/><clipPath id="id1"><path d="M 77.570312 33.757812 L 80.472656 33.757812 L 80.472656 35.863281 L 77.570312 35.863281 Z M 77.570312 33.757812 " clip-rule="nonzero"/></clipPath><clipPath id="id2"><path d="M 79.558594 35.78125 C 79.609375 35.789062 79.835938 35.8125 79.996094 35.667969 C 80.195312 35.488281 80.222656 35.121094 80.011719 34.816406 C 80.011719 34.816406 80.292969 34.585938 80.433594 34.324219 C 80.480469 34.234375 80.480469 34.125 80.417969 34.039062 C 80.382812 33.988281 80.296875 33.988281 80.199219 34.035156 C 80.164062 34.050781 80.125 34.039062 80.105469 34.007812 C 80.03125 33.707031 79.761719 33.867188 79.761719 33.867188 C 79.726562 33.890625 79.679688 33.914062 79.625 33.9375 C 79.261719 34.097656 77.828125 34.769531 77.621094 34.765625 C 77.710938 34.832031 78.976562 35.707031 79.558594 35.78125 Z M 79.558594 35.78125 " clip-rule="nonzero"/></clipPath><clipPath id="id3"><path d="M 79.558594 35.78125 C 79.609375 35.789062 79.835938 35.8125 79.996094 35.667969 C 80.195312 35.488281 80.222656 35.121094 80.011719 34.816406 C 80.011719 34.816406 80.292969 34.585938 80.433594 34.324219 C 80.480469 34.234375 80.480469 34.125 80.417969 34.039062 C 80.382812 33.988281 80.296875 33.988281 80.199219 34.035156 C 80.164062 34.050781 80.125 34.039062 80.105469 34.007812 C 80.03125 33.707031 79.761719 33.867188 79.761719 33.867188 C 79.726562 33.890625 79.679688 33.914062 79.625 33.9375 C 79.261719 34.097656 77.828125 34.769531 77.621094 34.765625 C 77.710938 34.832031 78.976562 35.707031 79.558594 35.78125 " clip-rule="nonzero"/></clipPath><clipPath id="id4"><path d="M 81.523438 34.746094 L 79.03125 32.265625 L 76.578125 34.777344 L 79.074219 37.253906 Z M 81.523438 34.746094 " clip-rule="nonzero"/></clipPath><linearGradient x1="-0.0108313" gradientTransform="matrix(-2.028864, 2.077956, -2.060195, -2.046355, 80.329162, 33.660132)" y1="0" x2="1.183226" gradientUnits="userSpaceOnUse" y2="0" id="id5"><stop stop-opacity="1" stop-color="rgb(91.398621%, 29.399109%, 28.599548%)" offset="0"/><stop stop-opacity="1" stop-color="rgb(91.398621%, 29.399109%, 28.599548%)" offset="0.015625"/><stop stop-opacity="1" stop-color="rgb(91.300964%, 29.301453%, 28.501892%)" offset="0.0234375"/><stop stop-opacity="1" stop-color="rgb(91.011047%, 29.01001%, 28.302002%)" offset="0.03125"/><stop stop-opacity="1" stop-color="rgb(90.625%, 28.623962%, 28.115845%)" offset="0.0390625"/><stop stop-opacity="1" stop-color="rgb(90.238953%, 28.237915%, 27.857971%)" offset="0.046875"/><stop stop-opacity="1" stop-color="rgb(89.84375%, 27.862549%, 27.590942%)" offset="0.0507812"/><stop stop-opacity="1" stop-color="rgb(89.640808%, 27.679443%, 27.49939%)" offset="0.0546875"/><stop stop-opacity="1" stop-color="rgb(89.431763%, 27.500916%, 27.410889%)" offset="0.0585938"/><stop stop-opacity="1" stop-color="rgb(89.224243%, 27.323914%, 27.323914%)" offset="0.0625"/><stop stop-opacity="1" stop-color="rgb(89.111328%, 27.130127%, 27.210999%)" offset="0.0703125"/><stop stop-opacity="1" stop-color="rgb(88.925171%, 26.74408%, 27.024841%)" offset="0.078125"/><stop stop-opacity="1" stop-color="rgb(88.658142%, 26.358032%, 26.757812%)" offset="0.0859375"/><stop stop-opacity="1" stop-color="rgb(88.172913%, 25.872803%, 26.431274%)" offset="0.0898437"/><stop stop-opacity="1" stop-color="rgb(87.879944%, 25.579834%, 26.298523%)" offset="0.09375"/><stop stop-opacity="1" stop-color="rgb(87.689209%, 25.382996%, 26.098633%)" offset="0.0976562"/><stop stop-opacity="1" stop-color="rgb(87.5%, 25.187683%, 25.898743%)" offset="0.101562"/><stop stop-opacity="1" stop-color="rgb(87.298584%, 25.001526%, 25.756836%)" offset="0.105469"/><stop stop-opacity="1" stop-color="rgb(87.098694%, 24.815369%, 25.614929%)" offset="0.109375"/><stop stop-opacity="1" stop-color="rgb(86.898804%, 24.629211%, 25.556946%)" offset="0.113281"/><stop stop-opacity="1" stop-color="rgb(86.698914%, 24.443054%, 25.498962%)" offset="0.117188"/><stop stop-opacity="1" stop-color="rgb(86.499023%, 24.256897%, 25.299072%)" offset="0.121094"/><stop stop-opacity="1" stop-color="rgb(86.299133%, 24.07074%, 25.099182%)" offset="0.125"/><stop stop-opacity="1" stop-color="rgb(86.099243%, 23.884583%, 24.998474%)" offset="0.128906"/><stop stop-opacity="1" stop-color="rgb(85.899353%, 23.698425%, 24.897766%)" offset="0.132812"/><stop stop-opacity="1" stop-color="rgb(85.699463%, 23.461914%, 24.798584%)" offset="0.136719"/><stop stop-opacity="1" stop-color="rgb(85.499573%, 23.225403%, 24.699402%)" offset="0.140625"/><stop stop-opacity="1" stop-color="rgb(85.299683%, 23.039246%, 24.499512%)" offset="0.144531"/><stop stop-opacity="1" stop-color="rgb(85.099792%, 22.854614%, 24.299622%)" offset="0.148438"/><stop stop-opacity="1" stop-color="rgb(84.898376%, 22.627258%, 24.189758%)" offset="0.152344"/><stop stop-opacity="1" stop-color="rgb(84.698486%, 22.399902%, 24.081421%)" offset="0.15625"/><stop stop-opacity="1" stop-color="rgb(84.498596%, 22.198486%, 23.989868%)" offset="0.160156"/><stop stop-opacity="1" stop-color="rgb(84.298706%, 21.998596%, 23.899841%)" offset="0.164062"/><stop stop-opacity="1" stop-color="rgb(84.098816%, 21.798706%, 23.698425%)" offset="0.167969"/><stop stop-opacity="1" stop-color="rgb(83.898926%, 21.598816%, 23.498535%)" offset="0.171875"/><stop stop-opacity="1" stop-color="rgb(83.699036%, 21.398926%, 23.298645%)" offset="0.175781"/><stop stop-opacity="1" stop-color="rgb(83.499146%, 21.199036%, 23.098755%)" offset="0.179687"/><stop stop-opacity="1" stop-color="rgb(83.299255%, 20.999146%, 22.994995%)" offset="0.183594"/><stop stop-opacity="1" stop-color="rgb(83.099365%, 20.799255%, 22.892761%)" offset="0.1875"/><stop stop-opacity="1" stop-color="rgb(82.832336%, 20.509338%, 22.795105%)" offset="0.191406"/><stop stop-opacity="1" stop-color="rgb(82.565308%, 20.220947%, 22.698975%)" offset="0.195312"/><stop stop-opacity="1" stop-color="rgb(82.406616%, 20.03479%, 22.549438%)" offset="0.203125"/><stop stop-opacity="1" stop-color="rgb(82.061768%, 19.662476%, 22.337341%)" offset="0.210937"/><stop stop-opacity="1" stop-color="rgb(81.672668%, 19.273376%, 22.073364%)" offset="0.214844"/><stop stop-opacity="1" stop-color="rgb(81.471252%, 19.07196%, 21.871948%)" offset="0.21875"/><stop stop-opacity="1" stop-color="rgb(81.251526%, 18.734741%, 21.734619%)" offset="0.222656"/><stop stop-opacity="1" stop-color="rgb(81.031799%, 18.399048%, 21.598816%)" offset="0.226562"/><stop stop-opacity="1" stop-color="rgb(80.845642%, 18.199158%, 21.398926%)" offset="0.230469"/><stop stop-opacity="1" stop-color="rgb(80.659485%, 17.999268%, 21.199036%)" offset="0.234375"/><stop stop-opacity="1" stop-color="rgb(80.473328%, 17.799377%, 21.142578%)" offset="0.238281"/><stop stop-opacity="1" stop-color="rgb(80.28717%, 17.599487%, 21.087646%)" offset="0.242188"/><stop stop-opacity="1" stop-color="rgb(79.942322%, 17.407227%, 20.901489%)" offset="0.246094"/><stop stop-opacity="1" stop-color="rgb(79.598999%, 17.214966%, 20.715332%)" offset="0.25"/><stop stop-opacity="1" stop-color="rgb(79.399109%, 17.028809%, 20.556641%)" offset="0.253906"/><stop stop-opacity="1" stop-color="rgb(79.199219%, 16.842651%, 20.399475%)" offset="0.257812"/><stop stop-opacity="1" stop-color="rgb(78.999329%, 16.60614%, 20.199585%)" offset="0.261719"/><stop stop-opacity="1" stop-color="rgb(78.799438%, 16.371155%, 19.999695%)" offset="0.265625"/><stop stop-opacity="1" stop-color="rgb(78.599548%, 16.184998%, 19.947815%)" offset="0.269531"/><stop stop-opacity="1" stop-color="rgb(78.399658%, 15.99884%, 19.897461%)" offset="0.273438"/><stop stop-opacity="1" stop-color="rgb(78.199768%, 15.649414%, 19.711304%)" offset="0.277344"/><stop stop-opacity="1" stop-color="rgb(77.999878%, 15.299988%, 19.526672%)" offset="0.28125"/><stop stop-opacity="1" stop-color="rgb(77.781677%, 15.098572%, 19.361877%)" offset="0.285156"/><stop stop-opacity="1" stop-color="rgb(77.565002%, 14.898682%, 19.198608%)" offset="0.289062"/><stop stop-opacity="1" stop-color="rgb(77.423096%, 14.689636%, 18.998718%)" offset="0.292969"/><stop stop-opacity="1" stop-color="rgb(77.281189%, 14.482117%, 18.798828%)" offset="0.296875"/><stop stop-opacity="1" stop-color="rgb(77.090454%, 14.289856%, 18.798828%)" offset="0.304687"/><stop stop-opacity="1" stop-color="rgb(76.667786%, 13.867188%, 18.566895%)" offset="0.308594"/><stop stop-opacity="1" stop-color="rgb(76.437378%, 13.63678%, 18.336487%)" offset="0.3125"/><stop stop-opacity="1" stop-color="rgb(76.068115%, 13.450623%, 18.167114%)" offset="0.316406"/><stop stop-opacity="1" stop-color="rgb(75.698853%, 13.264465%, 17.999268%)" offset="0.320312"/><stop stop-opacity="1" stop-color="rgb(75.498962%, 12.88147%, 17.799377%)" offset="0.324219"/><stop stop-opacity="1" stop-color="rgb(75.299072%, 12.5%, 17.599487%)" offset="0.328125"/><stop stop-opacity="1" stop-color="rgb(75.109863%, 12.5%, 17.599487%)" offset="0.335938"/><stop stop-opacity="1" stop-color="rgb(74.534607%, 12.367249%, 17.448425%)" offset="0.339844"/><stop stop-opacity="1" stop-color="rgb(74.14856%, 12.236023%, 17.298889%)" offset="0.34375"/><stop stop-opacity="1" stop-color="rgb(73.722839%, 12.217712%, 17.098999%)" offset="0.347656"/><stop stop-opacity="1" stop-color="rgb(73.298645%, 12.199402%, 16.899109%)" offset="0.351562"/><stop stop-opacity="1" stop-color="rgb(73.100281%, 12.199402%, 16.899109%)" offset="0.355469"/><stop stop-opacity="1" stop-color="rgb(72.903442%, 12.199402%, 16.899109%)" offset="0.359375"/><stop stop-opacity="1" stop-color="rgb(72.563171%, 11.999512%, 16.699219%)" offset="0.363281"/><stop stop-opacity="1" stop-color="rgb(72.2229%, 11.799622%, 16.499329%)" offset="0.367188"/><stop stop-opacity="1" stop-color="rgb(71.839905%, 11.799622%, 16.499329%)" offset="0.371094"/><stop stop-opacity="1" stop-color="rgb(71.458435%, 11.799622%, 16.499329%)" offset="0.375"/><stop stop-opacity="1" stop-color="rgb(71.228027%, 11.642456%, 16.299438%)" offset="0.378906"/><stop stop-opacity="1" stop-color="rgb(70.999146%, 11.486816%, 16.099548%)" offset="0.382812"/><stop stop-opacity="1" stop-color="rgb(70.608521%, 11.442566%, 15.908813%)" offset="0.386719"/><stop stop-opacity="1" stop-color="rgb(70.219421%, 11.399841%, 15.719604%)" offset="0.390625"/><stop stop-opacity="1" stop-color="rgb(69.830322%, 11.399841%, 15.708923%)" offset="0.394531"/><stop stop-opacity="1" stop-color="rgb(69.442749%, 11.399841%, 15.699768%)" offset="0.398437"/><stop stop-opacity="1" stop-color="rgb(69.219971%, 11.198425%, 15.499878%)" offset="0.402344"/><stop stop-opacity="1" stop-color="rgb(68.998718%, 10.998535%, 15.299988%)" offset="0.40625"/><stop stop-opacity="1" stop-color="rgb(68.647766%, 10.998535%, 15.299988%)" offset="0.410156"/><stop stop-opacity="1" stop-color="rgb(68.29834%, 10.998535%, 15.299988%)" offset="0.414062"/><stop stop-opacity="1" stop-color="rgb(67.945862%, 10.861206%, 15.098572%)" offset="0.417969"/><stop stop-opacity="1" stop-color="rgb(67.593384%, 10.725403%, 14.898682%)" offset="0.421875"/><stop stop-opacity="1" stop-color="rgb(67.422485%, 10.661316%, 14.775085%)" offset="0.429688"/><stop stop-opacity="1" stop-color="rgb(66.816711%, 10.598755%, 14.575195%)" offset="0.433594"/><stop stop-opacity="1" stop-color="rgb(66.381836%, 10.598755%, 14.498901%)" offset="0.4375"/><stop stop-opacity="1" stop-color="rgb(66.140747%, 10.453796%, 14.353943%)" offset="0.441406"/><stop stop-opacity="1" stop-color="rgb(65.899658%, 10.308838%, 14.208984%)" offset="0.445312"/><stop stop-opacity="1" stop-color="rgb(65.568542%, 10.253906%, 14.154053%)" offset="0.449219"/><stop stop-opacity="1" stop-color="rgb(65.237427%, 10.198975%, 14.099121%)" offset="0.453125"/><stop stop-opacity="1" stop-color="rgb(64.851379%, 10.198975%, 13.899231%)" offset="0.457031"/><stop stop-opacity="1" stop-color="rgb(64.465332%, 10.198975%, 13.699341%)" offset="0.460938"/><stop stop-opacity="1" stop-color="rgb(64.279175%, 9.999084%, 13.699341%)" offset="0.464844"/><stop stop-opacity="1" stop-color="rgb(64.093018%, 9.799194%, 13.699341%)" offset="0.46875"/><stop stop-opacity="1" stop-color="rgb(63.656616%, 9.799194%, 13.499451%)" offset="0.472656"/><stop stop-opacity="1" stop-color="rgb(63.220215%, 9.799194%, 13.299561%)" offset="0.476562"/><stop stop-opacity="1" stop-color="rgb(62.95929%, 9.799194%, 13.172913%)" offset="0.480469"/><stop stop-opacity="1" stop-color="rgb(62.69989%, 9.799194%, 13.047791%)" offset="0.484375"/><stop stop-opacity="1" stop-color="rgb(62.437439%, 9.599304%, 12.973022%)" offset="0.488281"/><stop stop-opacity="1" stop-color="rgb(62.174988%, 9.399414%, 12.89978%)" offset="0.492187"/><stop stop-opacity="1" stop-color="rgb(61.886597%, 9.399414%, 12.800598%)" offset="0.496094"/><stop stop-opacity="1" stop-color="rgb(61.599731%, 9.399414%, 12.702942%)" offset="0.5"/><stop stop-opacity="1" stop-color="rgb(61.314392%, 9.399414%, 12.600708%)" offset="0.503906"/><stop stop-opacity="1" stop-color="rgb(61.030579%, 9.399414%, 12.5%)" offset="0.507813"/><stop stop-opacity="1" stop-color="rgb(60.714722%, 9.199524%, 12.42981%)" offset="0.511719"/><stop stop-opacity="1" stop-color="rgb(60.398865%, 8.999634%, 12.359619%)" offset="0.515625"/><stop stop-opacity="1" stop-color="rgb(60.092163%, 8.999634%, 12.278748%)" offset="0.519531"/><stop stop-opacity="1" stop-color="rgb(59.786987%, 8.999634%, 12.199402%)" offset="0.523438"/><stop stop-opacity="1" stop-color="rgb(59.40094%, 8.906555%, 11.999512%)" offset="0.527344"/><stop stop-opacity="1" stop-color="rgb(59.014893%, 8.815002%, 11.799622%)" offset="0.53125"/><stop stop-opacity="1" stop-color="rgb(58.828735%, 8.706665%, 11.799622%)" offset="0.539062"/><stop stop-opacity="1" stop-color="rgb(58.320618%, 8.599854%, 11.599731%)" offset="0.542969"/><stop stop-opacity="1" stop-color="rgb(57.998657%, 8.599854%, 11.399841%)" offset="0.546875"/><stop stop-opacity="1" stop-color="rgb(57.76062%, 8.547974%, 11.399841%)" offset="0.550781"/><stop stop-opacity="1" stop-color="rgb(57.522583%, 8.49762%, 11.399841%)" offset="0.554688"/><stop stop-opacity="1" stop-color="rgb(57.209778%, 8.348083%, 11.198425%)" offset="0.558594"/><stop stop-opacity="1" stop-color="rgb(56.898499%, 8.198547%, 10.998535%)" offset="0.5625"/><stop stop-opacity="1" stop-color="rgb(56.625366%, 8.198547%, 10.998535%)" offset="0.566406"/><stop stop-opacity="1" stop-color="rgb(56.35376%, 8.198547%, 10.998535%)" offset="0.570312"/><stop stop-opacity="1" stop-color="rgb(56.025696%, 8.139038%, 10.798645%)" offset="0.574219"/><stop stop-opacity="1" stop-color="rgb(55.699158%, 8.081055%, 10.598755%)" offset="0.578125"/><stop stop-opacity="1" stop-color="rgb(55.453491%, 7.939148%, 10.598755%)" offset="0.582031"/><stop stop-opacity="1" stop-color="rgb(55.209351%, 7.798767%, 10.598755%)" offset="0.585938"/><stop stop-opacity="1" stop-color="rgb(55.023193%, 7.798767%, 10.398865%)" offset="0.589844"/><stop stop-opacity="1" stop-color="rgb(54.837036%, 7.798767%, 10.198975%)" offset="0.59375"/><stop stop-opacity="1" stop-color="rgb(54.400635%, 7.748413%, 10.198975%)" offset="0.597656"/><stop stop-opacity="1" stop-color="rgb(53.964233%, 7.698059%, 10.198975%)" offset="0.601563"/><stop stop-opacity="1" stop-color="rgb(53.778076%, 7.598877%, 9.999084%)" offset="0.605469"/><stop stop-opacity="1" stop-color="rgb(53.591919%, 7.499695%, 9.799194%)" offset="0.609375"/><stop stop-opacity="1" stop-color="rgb(53.245544%, 7.499695%, 9.799194%)" offset="0.613281"/><stop stop-opacity="1" stop-color="rgb(52.89917%, 7.499695%, 9.799194%)" offset="0.617188"/><stop stop-opacity="1" stop-color="rgb(52.679443%, 7.499695%, 9.599304%)" offset="0.621094"/><stop stop-opacity="1" stop-color="rgb(52.461243%, 7.499695%, 9.399414%)" offset="0.625"/><stop stop-opacity="1" stop-color="rgb(52.31781%, 7.299805%, 9.399414%)" offset="0.628906"/><stop stop-opacity="1" stop-color="rgb(52.175903%, 7.099915%, 9.399414%)" offset="0.632812"/><stop stop-opacity="1" stop-color="rgb(51.789856%, 7.099915%, 9.20105%)" offset="0.636719"/><stop stop-opacity="1" stop-color="rgb(51.403809%, 7.099915%, 9.002686%)" offset="0.640625"/><stop stop-opacity="1" stop-color="rgb(51.167297%, 7.099915%, 9.00116%)" offset="0.644531"/><stop stop-opacity="1" stop-color="rgb(50.930786%, 7.099915%, 8.999634%)" offset="0.648438"/><stop stop-opacity="1" stop-color="rgb(50.744629%, 6.898499%, 8.799744%)" offset="0.652344"/><stop stop-opacity="1" stop-color="rgb(50.558472%, 6.698608%, 8.599854%)" offset="0.65625"/><stop stop-opacity="1" stop-color="rgb(50.178528%, 6.698608%, 8.599854%)" offset="0.660156"/><stop stop-opacity="1" stop-color="rgb(49.798584%, 6.698608%, 8.599854%)" offset="0.664062"/><stop stop-opacity="1" stop-color="rgb(49.606323%, 6.698608%, 8.406067%)" offset="0.671875"/><stop stop-opacity="1" stop-color="rgb(49.206543%, 6.698608%, 8.206177%)" offset="0.675781"/><stop stop-opacity="1" stop-color="rgb(48.999023%, 6.698608%, 8.198547%)" offset="0.679688"/><stop stop-opacity="1" stop-color="rgb(48.783875%, 6.498718%, 8.183289%)" offset="0.683594"/><stop stop-opacity="1" stop-color="rgb(48.570251%, 6.298828%, 8.169556%)" offset="0.6875"/><stop stop-opacity="1" stop-color="rgb(48.184204%, 6.298828%, 7.983398%)" offset="0.691406"/><stop stop-opacity="1" stop-color="rgb(47.799683%, 6.298828%, 7.798767%)" offset="0.695313"/><stop stop-opacity="1" stop-color="rgb(47.659302%, 6.298828%, 7.798767%)" offset="0.703125"/><stop stop-opacity="1" stop-color="rgb(47.30835%, 6.124878%, 7.669067%)" offset="0.707031"/><stop stop-opacity="1" stop-color="rgb(47.099304%, 5.952454%, 7.539368%)" offset="0.710938"/><stop stop-opacity="1" stop-color="rgb(46.899414%, 5.924988%, 7.519531%)" offset="0.714844"/><stop stop-opacity="1" stop-color="rgb(46.699524%, 5.899048%, 7.499695%)" offset="0.71875"/><stop stop-opacity="1" stop-color="rgb(46.499634%, 5.899048%, 7.305908%)" offset="0.722656"/><stop stop-opacity="1" stop-color="rgb(46.299744%, 5.899048%, 7.112122%)" offset="0.726562"/><stop stop-opacity="1" stop-color="rgb(45.918274%, 5.899048%, 7.106018%)" offset="0.730469"/><stop stop-opacity="1" stop-color="rgb(45.536804%, 5.899048%, 7.099915%)" offset="0.734375"/><stop stop-opacity="1" stop-color="rgb(45.350647%, 5.699158%, 7.099915%)" offset="0.738281"/><stop stop-opacity="1" stop-color="rgb(45.16449%, 5.499268%, 7.099915%)" offset="0.742188"/><stop stop-opacity="1" stop-color="rgb(44.978333%, 5.499268%, 6.898499%)" offset="0.746094"/><stop stop-opacity="1" stop-color="rgb(44.792175%, 5.499268%, 6.698608%)" offset="0.75"/><stop stop-opacity="1" stop-color="rgb(44.606018%, 5.499268%, 6.698608%)" offset="0.757812"/><stop stop-opacity="1" stop-color="rgb(44.233704%, 5.499268%, 6.698608%)" offset="0.765625"/><stop stop-opacity="1" stop-color="rgb(43.891907%, 5.418396%, 6.498718%)" offset="0.769531"/><stop stop-opacity="1" stop-color="rgb(43.737793%, 5.337524%, 6.298828%)" offset="0.773438"/><stop stop-opacity="1" stop-color="rgb(43.544006%, 5.218506%, 6.298828%)" offset="0.78125"/><stop stop-opacity="1" stop-color="rgb(43.157959%, 5.099487%, 6.231689%)" offset="0.789063"/><stop stop-opacity="1" stop-color="rgb(42.78717%, 5.099487%, 6.031799%)" offset="0.796875"/><stop stop-opacity="1" stop-color="rgb(42.449951%, 5.099487%, 5.899048%)" offset="0.804688"/><stop stop-opacity="1" stop-color="rgb(42.146301%, 5.046082%, 5.899048%)" offset="0.8125"/><stop stop-opacity="1" stop-color="rgb(41.934204%, 4.846191%, 5.834961%)" offset="0.820312"/><stop stop-opacity="1" stop-color="rgb(41.705322%, 4.699707%, 5.635071%)" offset="0.828125"/><stop stop-opacity="1" stop-color="rgb(41.369629%, 4.699707%, 5.499268%)" offset="0.84375"/><stop stop-opacity="1" stop-color="rgb(41.19873%, 4.699707%, 5.499268%)" offset="0.875"/><stop stop-opacity="1" stop-color="rgb(41.19873%, 4.699707%, 5.499268%)" offset="1"/></linearGradient><clipPath id="id6"><path d="M 78 22 L 87.730469 22 L 87.730469 27 L 78 27 Z M 78 22 " clip-rule="nonzero"/></clipPath><clipPath id="id7"><path d="M 78 24 L 87.730469 24 L 87.730469 32 L 78 32 Z M 78 24 " clip-rule="nonzero"/></clipPath><clipPath id="id8"><path d="M 70 28 L 84 28 L 84 49.6875 L 70 49.6875 Z M 70 28 " clip-rule="nonzero"/></clipPath></defs><path fill="#940e60" d="M 79.582031 32.703125 C 80.414062 32.996094 81.199219 32.972656 81.199219 32.972656 C 81.847656 32.921875 81.679688 32.410156 81.679688 32.410156 L 80.609375 29.714844 C 80.320312 29.011719 80.691406 28.59375 80.691406 28.59375 C 80.71875 28.9375 81.007812 28.996094 81.007812 28.996094 C 80.933594 28.867188 80.925781 28.652344 80.925781 28.652344 C 81.082031 28.949219 81.367188 28.929688 81.367188 28.929688 C 81.203125 28.828125 81.160156 28.605469 81.160156 28.605469 C 81.300781 28.871094 81.605469 28.769531 81.605469 28.769531 C 81.410156 28.707031 81.386719 28.582031 81.386719 28.582031 C 81.738281 28.664062 82.179688 28.257812 82.179688 28.257812 C 81.890625 28.40625 81.441406 28.273438 81.441406 28.273438 C 81.007812 28.085938 80.828125 28.210938 80.761719 28.289062 C 80.734375 28.324219 80.699219 28.355469 80.664062 28.378906 C 80 28.832031 80.46875 30.089844 80.46875 30.089844 C 80.46875 30.089844 81.175781 31.800781 81.378906 32.425781 C 81.582031 33.050781 79.582031 32.703125 79.582031 32.703125 " fill-opacity="1" fill-rule="nonzero"/><path fill="#940e60" d="M 79.328125 27.671875 C 79.46875 27.222656 78.652344 26.730469 78.652344 26.730469 C 78.394531 26.578125 78.027344 26.433594 77.722656 26.328125 C 77.539062 26.257812 77.355469 26.203125 77.175781 26.15625 C 76.277344 25.929688 75.484375 25.980469 75.484375 25.980469 C 77.589844 26.398438 78.6875 27.125 79.113281 27.472656 L 79.328125 27.671875 " fill-opacity="1" fill-rule="nonzero"/><path fill="#940e60" d="M 77.734375 28.660156 C 77.851562 28.453125 77.691406 28.199219 77.691406 28.199219 C 78.066406 28.394531 78.210938 28.765625 78.210938 28.765625 C 78.234375 28.53125 78.046875 28.273438 78.046875 28.273438 C 78.488281 28.457031 78.734375 28.855469 78.734375 28.855469 C 78.695312 28.5625 78.398438 28.308594 78.398438 28.308594 C 78.738281 28.386719 79.042969 28.734375 79.042969 28.734375 C 78.957031 28.464844 78.667969 28.261719 78.667969 28.261719 L 79 28.351562 C 78.707031 28.113281 78.714844 27.441406 78.714844 27.441406 C 78.574219 28.351562 77.066406 27.582031 77.066406 27.582031 C 76.078125 27.144531 76.019531 26.503906 76.019531 26.503906 C 75.859375 27.011719 76.136719 27.296875 76.136719 27.296875 C 75.878906 27.417969 75.566406 27.230469 75.566406 27.230469 C 75.832031 27.628906 76.289062 27.511719 76.289062 27.511719 C 76.15625 27.847656 75.722656 27.738281 75.722656 27.738281 C 76.238281 28 76.511719 27.746094 76.511719 27.746094 C 76.457031 28.015625 76.101562 28.019531 76.101562 28.019531 C 76.476562 28.09375 76.753906 27.96875 76.753906 27.96875 C 76.761719 28.089844 76.464844 28.175781 76.464844 28.175781 C 77.011719 28.285156 77.230469 28.097656 77.230469 28.097656 C 77.339844 28.101562 77.390625 28.492188 77.390625 28.492188 C 77.488281 28.339844 77.472656 28.164062 77.472656 28.164062 C 77.71875 28.378906 77.734375 28.660156 77.734375 28.660156 " fill-opacity="1" fill-rule="nonzero"/><g clip-path="url(#id1)"><g clip-path="url(#id2)"><g clip-path="url(#id3)"><g clip-path="url(#id4)"><path fill="url(#id5)" d="M 81.492188 34.769531 L 79.027344 32.320312 L 76.601562 34.800781 L 79.070312 37.253906 Z M 81.492188 34.769531 " fill-rule="nonzero"/></g></g></g></g><g clip-path="url(#id6)"><path fill="#940e60" d="M 87.382812 26.503906 C 87.382812 26.503906 84.304688 19.683594 78.484375 23.652344 C 78.484375 23.652344 83.234375 22.316406 87.382812 26.503906 " fill-opacity="1" fill-rule="nonzero"/></g><g clip-path="url(#id7)"><path fill="#940e60" d="M 78.484375 24.128906 C 78.484375 24.128906 84.859375 25.035156 87.726562 31.589844 C 87.726562 31.589844 87.640625 23.609375 78.484375 24.128906 " fill-opacity="1" fill-rule="nonzero"/></g><path fill="#940e60" d="M 78.3125 24.457031 C 78.3125 24.457031 81.246094 25.964844 83.511719 29.347656 C 83.511719 29.347656 83.136719 26.066406 78.3125 24.457031 " fill-opacity="1" fill-rule="nonzero"/><path fill="#940e60" d="M 76.171875 32.972656 C 76.171875 32.972656 73.601562 30.222656 74.203125 27.203125 C 74.203125 27.203125 72.535156 31.171875 76.171875 32.972656 " fill-opacity="1" fill-rule="nonzero"/><path fill="#940e60" d="M 79.042969 40.316406 C 79.042969 40.316406 71.890625 35.011719 73.601562 27.847656 C 73.601562 27.847656 69.882812 34.796875 79.042969 40.316406 " fill-opacity="1" fill-rule="nonzero"/><g clip-path="url(#id8)"><path fill="#940e60" d="M 77.796875 43.078125 C 77.796875 43.078125 67.957031 36.953125 73.089844 28.175781 C 73.089844 28.175781 65.988281 37.253906 76.171875 43.121094 C 76.171875 43.121094 81.132812 45.238281 83.105469 49.679688 C 83.105469 49.679688 82.203125 45.796875 77.796875 43.078125 " fill-opacity="1" fill-rule="nonzero"/></g><g fill="#737373" fill-opacity="1"><g transform="translate(84.234094, 44.639728)"><g><path d="M 2.8125 0.0625 C 2.300781 0.0625 1.859375 -0.0195312 1.484375 -0.1875 C 1.109375 -0.363281 0.816406 -0.613281 0.609375 -0.9375 C 0.410156 -1.257812 0.3125 -1.640625 0.3125 -2.078125 C 0.3125 -2.460938 0.378906 -2.800781 0.515625 -3.09375 C 0.660156 -3.394531 0.859375 -3.640625 1.109375 -3.828125 C 1.359375 -4.023438 1.644531 -4.171875 1.96875 -4.265625 C 2.300781 -4.367188 2.648438 -4.421875 3.015625 -4.421875 C 3.253906 -4.421875 3.488281 -4.394531 3.71875 -4.34375 C 3.957031 -4.289062 4.144531 -4.226562 4.28125 -4.15625 L 4.34375 -2.9375 L 3.796875 -2.921875 L 3.5 -3.75 C 3.40625 -3.78125 3.3125 -3.804688 3.21875 -3.828125 C 3.132812 -3.847656 3.046875 -3.859375 2.953125 -3.859375 C 2.722656 -3.859375 2.519531 -3.796875 2.34375 -3.671875 C 2.164062 -3.554688 2.023438 -3.382812 1.921875 -3.15625 C 1.828125 -2.925781 1.78125 -2.640625 1.78125 -2.296875 C 1.78125 -1.929688 1.835938 -1.617188 1.953125 -1.359375 C 2.066406 -1.097656 2.21875 -0.894531 2.40625 -0.75 C 2.601562 -0.601562 2.816406 -0.53125 3.046875 -0.53125 C 3.179688 -0.53125 3.304688 -0.546875 3.421875 -0.578125 C 3.546875 -0.609375 3.648438 -0.660156 3.734375 -0.734375 L 3.96875 -1.4375 L 4.5625 -1.375 L 4.359375 -0.34375 C 4.203125 -0.226562 3.984375 -0.128906 3.703125 -0.046875 C 3.421875 0.0234375 3.125 0.0625 2.8125 0.0625 Z M 2.8125 0.0625 "/></g></g></g><g fill="#737373" fill-opacity="1"><g transform="translate(88.968277, 44.639728)"><g><path d="M 0.09375 0 L 0.0625 -0.390625 L 0.53125 -0.515625 C 0.53125 -0.585938 0.535156 -0.703125 0.546875 -0.859375 C 0.554688 -1.015625 0.5625 -1.171875 0.5625 -1.328125 C 0.570312 -1.492188 0.578125 -1.625 0.578125 -1.71875 L 0.578125 -2.671875 C 0.578125 -2.835938 0.570312 -3 0.5625 -3.15625 C 0.5625 -3.3125 0.5625 -3.457031 0.5625 -3.59375 C 0.5625 -3.726562 0.554688 -3.859375 0.546875 -3.984375 C 0.546875 -4.109375 0.539062 -4.222656 0.53125 -4.328125 L -0.015625 -4.40625 L -0.03125 -4.78125 L 1.59375 -5.1875 L 1.828125 -5.046875 C 1.816406 -4.890625 1.804688 -4.742188 1.796875 -4.609375 C 1.785156 -4.472656 1.773438 -4.320312 1.765625 -4.15625 C 1.765625 -3.988281 1.757812 -3.789062 1.75 -3.5625 C 1.75 -3.34375 1.75 -3.070312 1.75 -2.75 L 1.765625 -2.734375 C 1.910156 -2.941406 2.078125 -3.097656 2.265625 -3.203125 C 2.460938 -3.304688 2.664062 -3.359375 2.875 -3.359375 C 3.101562 -3.359375 3.300781 -3.300781 3.46875 -3.1875 C 3.644531 -3.082031 3.78125 -2.925781 3.875 -2.71875 C 3.96875 -2.519531 4.015625 -2.28125 4.015625 -2 L 4.015625 -1.25 C 4.015625 -1.09375 4.015625 -0.941406 4.015625 -0.796875 C 4.023438 -0.648438 4.035156 -0.554688 4.046875 -0.515625 L 4.515625 -0.390625 L 4.484375 0 L 2.40625 0 L 2.390625 -0.390625 L 2.78125 -0.515625 C 2.789062 -0.578125 2.796875 -0.65625 2.796875 -0.75 C 2.804688 -0.84375 2.8125 -0.9375 2.8125 -1.03125 C 2.820312 -1.132812 2.828125 -1.21875 2.828125 -1.28125 L 2.828125 -1.796875 C 2.828125 -1.960938 2.800781 -2.097656 2.75 -2.203125 C 2.707031 -2.316406 2.644531 -2.398438 2.5625 -2.453125 C 2.488281 -2.503906 2.394531 -2.53125 2.28125 -2.53125 C 2.1875 -2.53125 2.09375 -2.507812 2 -2.46875 C 1.914062 -2.425781 1.835938 -2.363281 1.765625 -2.28125 L 1.765625 -1.203125 C 1.765625 -1.054688 1.769531 -0.914062 1.78125 -0.78125 C 1.789062 -0.644531 1.796875 -0.554688 1.796875 -0.515625 L 2.234375 -0.390625 L 2.203125 0 Z M 0.09375 0 "/></g></g></g><g fill="#737373" fill-opacity="1"><g transform="translate(93.524371, 44.639728)"><g><path d="M 0.09375 0 L 0.078125 -0.390625 L 0.53125 -0.515625 C 0.539062 -0.546875 0.546875 -0.601562 0.546875 -0.6875 C 0.554688 -0.769531 0.5625 -0.863281 0.5625 -0.96875 C 0.570312 -1.070312 0.578125 -1.160156 0.578125 -1.234375 L 0.578125 -1.78125 C 0.578125 -1.914062 0.570312 -2.023438 0.5625 -2.109375 C 0.5625 -2.203125 0.546875 -2.328125 0.515625 -2.484375 L 0.046875 -2.59375 L 0.046875 -2.96875 L 1.5 -3.359375 L 1.75 -3.21875 L 1.734375 -2.625 L 1.75 -2.625 C 1.882812 -2.894531 2.019531 -3.082031 2.15625 -3.1875 C 2.300781 -3.289062 2.457031 -3.34375 2.625 -3.34375 C 2.769531 -3.34375 2.898438 -3.296875 3.015625 -3.203125 C 3.140625 -3.117188 3.203125 -2.984375 3.203125 -2.796875 C 3.203125 -2.609375 3.140625 -2.457031 3.015625 -2.34375 C 2.890625 -2.238281 2.75 -2.1875 2.59375 -2.1875 C 2.445312 -2.1875 2.320312 -2.207031 2.21875 -2.25 C 2.113281 -2.300781 2 -2.394531 1.875 -2.53125 L 2.140625 -2.53125 C 2.066406 -2.476562 2 -2.414062 1.9375 -2.34375 C 1.882812 -2.269531 1.835938 -2.195312 1.796875 -2.125 L 1.796875 -1.59375 C 1.804688 -1.382812 1.8125 -1.203125 1.8125 -1.046875 C 1.8125 -0.890625 1.8125 -0.765625 1.8125 -0.671875 C 1.820312 -0.585938 1.828125 -0.539062 1.828125 -0.53125 L 2.484375 -0.40625 L 2.453125 0 Z M 0.09375 0 "/></g></g></g><g fill="#737373" fill-opacity="1"><g transform="translate(96.819006, 44.639728)"><g><path d="M 0.078125 0 L 0.046875 -0.40625 L 0.53125 -0.515625 C 0.539062 -0.546875 0.546875 -0.601562 0.546875 -0.6875 C 0.554688 -0.769531 0.5625 -0.863281 0.5625 -0.96875 C 0.570312 -1.070312 0.578125 -1.160156 0.578125 -1.234375 L 0.578125 -1.78125 C 0.578125 -1.925781 0.570312 -2.039062 0.5625 -2.125 C 0.5625 -2.21875 0.546875 -2.335938 0.515625 -2.484375 L 0.03125 -2.59375 L 0.03125 -2.96875 L 1.578125 -3.359375 L 1.828125 -3.21875 C 1.816406 -3.050781 1.804688 -2.882812 1.796875 -2.71875 C 1.785156 -2.550781 1.78125 -2.363281 1.78125 -2.15625 L 1.78125 -1.203125 C 1.78125 -1.078125 1.785156 -0.941406 1.796875 -0.796875 C 1.804688 -0.648438 1.8125 -0.554688 1.8125 -0.515625 L 2.296875 -0.40625 L 2.28125 0 Z M 1.234375 -3.796875 C 0.984375 -3.796875 0.789062 -3.867188 0.65625 -4.015625 C 0.519531 -4.160156 0.453125 -4.328125 0.453125 -4.515625 C 0.453125 -4.703125 0.519531 -4.863281 0.65625 -5 C 0.789062 -5.144531 0.984375 -5.21875 1.234375 -5.21875 C 1.484375 -5.21875 1.671875 -5.144531 1.796875 -5 C 1.921875 -4.863281 1.984375 -4.703125 1.984375 -4.515625 C 1.984375 -4.328125 1.921875 -4.160156 1.796875 -4.015625 C 1.671875 -3.867188 1.484375 -3.796875 1.234375 -3.796875 Z M 1.234375 -3.796875 "/></g></g></g><g fill="#737373" fill-opacity="1"><g transform="translate(99.186097, 44.639728)"><g><path d="M 1.453125 0.0625 C 1.234375 0.0625 1.015625 0.0351562 0.796875 -0.015625 C 0.578125 -0.0664062 0.394531 -0.128906 0.25 -0.203125 L 0.21875 -1.125 L 0.765625 -1.125 L 0.921875 -0.59375 C 1.128906 -0.488281 1.328125 -0.4375 1.515625 -0.4375 C 1.648438 -0.4375 1.75 -0.457031 1.8125 -0.5 C 1.875 -0.550781 1.90625 -0.617188 1.90625 -0.703125 C 1.90625 -0.796875 1.863281 -0.875 1.78125 -0.9375 C 1.695312 -1 1.523438 -1.078125 1.265625 -1.171875 C 0.898438 -1.304688 0.644531 -1.457031 0.5 -1.625 C 0.351562 -1.789062 0.28125 -2 0.28125 -2.25 C 0.28125 -2.46875 0.347656 -2.660156 0.484375 -2.828125 C 0.617188 -2.992188 0.804688 -3.125 1.046875 -3.21875 C 1.296875 -3.3125 1.582031 -3.359375 1.90625 -3.359375 C 2.070312 -3.359375 2.242188 -3.34375 2.421875 -3.3125 C 2.597656 -3.28125 2.738281 -3.238281 2.84375 -3.1875 L 2.9375 -2.265625 L 2.390625 -2.265625 L 2.234375 -2.796875 C 2.179688 -2.835938 2.117188 -2.863281 2.046875 -2.875 C 1.972656 -2.894531 1.910156 -2.90625 1.859375 -2.90625 C 1.722656 -2.90625 1.613281 -2.878906 1.53125 -2.828125 C 1.457031 -2.773438 1.421875 -2.695312 1.421875 -2.59375 C 1.421875 -2.5 1.472656 -2.414062 1.578125 -2.34375 C 1.679688 -2.269531 1.878906 -2.175781 2.171875 -2.0625 C 2.492188 -1.945312 2.722656 -1.804688 2.859375 -1.640625 C 3.003906 -1.484375 3.078125 -1.289062 3.078125 -1.0625 C 3.078125 -0.71875 2.925781 -0.441406 2.625 -0.234375 C 2.332031 -0.0351562 1.941406 0.0625 1.453125 0.0625 Z M 1.453125 0.0625 "/></g></g></g><g fill="#737373" fill-opacity="1"><g transform="translate(102.406528, 44.639728)"><g><path d="M 1.96875 0.0625 C 1.625 0.0625 1.320312 -0.015625 1.0625 -0.171875 C 0.800781 -0.328125 0.597656 -0.53125 0.453125 -0.78125 C 0.304688 -1.039062 0.234375 -1.316406 0.234375 -1.609375 C 0.234375 -1.953125 0.316406 -2.253906 0.484375 -2.515625 C 0.648438 -2.773438 0.867188 -2.976562 1.140625 -3.125 C 1.410156 -3.28125 1.703125 -3.359375 2.015625 -3.359375 C 2.460938 -3.359375 2.816406 -3.222656 3.078125 -2.953125 C 3.335938 -2.691406 3.46875 -2.34375 3.46875 -1.90625 L 3.46875 -1.703125 L 1.3125 -1.703125 L 1.3125 -2.125 L 2.578125 -2.125 L 2.4375 -1.890625 L 2.4375 -2.203125 C 2.4375 -2.410156 2.394531 -2.578125 2.3125 -2.703125 C 2.226562 -2.828125 2.109375 -2.890625 1.953125 -2.890625 C 1.835938 -2.890625 1.738281 -2.859375 1.65625 -2.796875 C 1.582031 -2.734375 1.519531 -2.640625 1.46875 -2.515625 C 1.425781 -2.398438 1.40625 -2.242188 1.40625 -2.046875 L 1.40625 -1.859375 C 1.40625 -1.546875 1.492188 -1.285156 1.671875 -1.078125 C 1.847656 -0.878906 2.09375 -0.78125 2.40625 -0.78125 C 2.570312 -0.78125 2.722656 -0.8125 2.859375 -0.875 C 3.003906 -0.9375 3.140625 -1.035156 3.265625 -1.171875 L 3.515625 -0.9375 C 3.378906 -0.613281 3.171875 -0.363281 2.890625 -0.1875 C 2.617188 -0.0195312 2.3125 0.0625 1.96875 0.0625 Z M 1.96875 0.0625 "/></g></g></g><g fill="#737373" fill-opacity="1"><g transform="translate(106.094442, 44.639728)"><g><path d="M 0.0625 0 L 0.046875 -0.40625 L 0.53125 -0.515625 C 0.53125 -0.585938 0.535156 -0.703125 0.546875 -0.859375 C 0.554688 -1.015625 0.5625 -1.171875 0.5625 -1.328125 C 0.570312 -1.492188 0.578125 -1.625 0.578125 -1.71875 L 0.578125 -2.671875 C 0.578125 -2.835938 0.570312 -2.992188 0.5625 -3.140625 C 0.5625 -3.285156 0.5625 -3.429688 0.5625 -3.578125 C 0.5625 -3.722656 0.554688 -3.859375 0.546875 -3.984375 C 0.546875 -4.109375 0.539062 -4.222656 0.53125 -4.328125 L -0.015625 -4.40625 L -0.03125 -4.78125 L 1.609375 -5.1875 L 1.84375 -5.046875 C 1.832031 -4.835938 1.820312 -4.640625 1.8125 -4.453125 C 1.8125 -4.265625 1.8125 -4.046875 1.8125 -3.796875 C 1.8125 -3.554688 1.804688 -3.257812 1.796875 -2.90625 L 1.796875 -1.890625 C 1.796875 -1.503906 1.796875 -1.191406 1.796875 -0.953125 C 1.804688 -0.722656 1.816406 -0.578125 1.828125 -0.515625 L 2.3125 -0.40625 L 2.28125 0 Z M 0.0625 0 "/></g></g></g><g fill="#737373" fill-opacity="1"><g transform="translate(108.461533, 44.639728)"><g><path d="M 1.390625 0.0625 C 1.148438 0.0625 0.941406 0.0078125 0.765625 -0.09375 C 0.597656 -0.207031 0.46875 -0.335938 0.375 -0.484375 C 0.289062 -0.640625 0.25 -0.773438 0.25 -0.890625 C 0.25 -1.085938 0.300781 -1.25 0.40625 -1.375 C 0.519531 -1.5 0.691406 -1.59375 0.921875 -1.65625 L 2.109375 -1.96875 L 2.109375 -2.15625 C 2.109375 -2.257812 2.078125 -2.351562 2.015625 -2.4375 C 1.953125 -2.53125 1.867188 -2.601562 1.765625 -2.65625 C 1.671875 -2.71875 1.570312 -2.75 1.46875 -2.75 C 1.414062 -2.75 1.375 -2.734375 1.34375 -2.703125 C 1.320312 -2.671875 1.304688 -2.617188 1.296875 -2.546875 L 1.25 -2 C 0.957031 -1.9375 0.722656 -1.941406 0.546875 -2.015625 C 0.367188 -2.097656 0.28125 -2.222656 0.28125 -2.390625 C 0.28125 -2.503906 0.335938 -2.613281 0.453125 -2.71875 C 0.566406 -2.832031 0.707031 -2.9375 0.875 -3.03125 C 1.050781 -3.125 1.21875 -3.203125 1.375 -3.265625 C 1.539062 -3.328125 1.671875 -3.359375 1.765625 -3.359375 C 2.253906 -3.359375 2.640625 -3.253906 2.921875 -3.046875 C 3.203125 -2.847656 3.34375 -2.570312 3.34375 -2.21875 L 3.3125 -1.3125 C 3.3125 -1.144531 3.316406 -1.023438 3.328125 -0.953125 C 3.335938 -0.890625 3.351562 -0.832031 3.375 -0.78125 L 3.875 -0.703125 L 3.875 -0.328125 L 3.3125 -0.078125 C 3.21875 -0.0234375 3.125 0.0078125 3.03125 0.03125 C 2.945312 0.0507812 2.863281 0.0625 2.78125 0.0625 C 2.5625 0.0625 2.40625 -0.046875 2.3125 -0.265625 L 2.140625 -0.640625 L 2.328125 -0.59375 C 2.179688 -0.394531 2.023438 -0.234375 1.859375 -0.109375 C 1.691406 0.00390625 1.535156 0.0625 1.390625 0.0625 Z M 1.890625 -0.75 C 1.921875 -0.75 1.957031 -0.753906 2 -0.765625 C 2.039062 -0.773438 2.082031 -0.796875 2.125 -0.828125 L 2.125 -1.515625 L 1.828125 -1.5 C 1.703125 -1.488281 1.609375 -1.453125 1.546875 -1.390625 C 1.492188 -1.335938 1.46875 -1.265625 1.46875 -1.171875 C 1.46875 -1.066406 1.507812 -0.96875 1.59375 -0.875 C 1.6875 -0.789062 1.785156 -0.75 1.890625 -0.75 Z M 1.890625 -0.75 "/></g></g></g><g fill="#737373" fill-opacity="1"><g transform="translate(112.342375, 44.639728)"><g/></g></g><g fill="#737373" fill-opacity="1"><g transform="translate(113.826445, 44.639728)"><g><path d="M 2.046875 -3.796875 C 2.046875 -3.785156 2.039062 -3.71875 2.03125 -3.59375 C 2.019531 -3.476562 2.007812 -3.335938 2 -3.171875 C 2 -3.003906 2 -2.828125 2 -2.640625 L 2.015625 0.03125 C 2.015625 0.320312 1.953125 0.578125 1.828125 0.796875 C 1.703125 1.023438 1.523438 1.195312 1.296875 1.3125 C 1.066406 1.4375 0.800781 1.5 0.5 1.5 C 0.144531 1.5 -0.140625 1.4375 -0.359375 1.3125 C -0.578125 1.195312 -0.6875 1.035156 -0.6875 0.828125 C -0.6875 0.679688 -0.644531 0.566406 -0.5625 0.484375 C -0.476562 0.398438 -0.378906 0.359375 -0.265625 0.359375 C -0.148438 0.359375 -0.0507812 0.378906 0.03125 0.421875 C 0.125 0.472656 0.226562 0.550781 0.34375 0.65625 L 0.953125 1.21875 L 0.4375 1.03125 C 0.550781 1.039062 0.628906 1.03125 0.671875 1 C 0.710938 0.976562 0.738281 0.898438 0.75 0.765625 C 0.769531 0.628906 0.78125 0.421875 0.78125 0.140625 L 0.765625 -2.671875 C 0.765625 -2.835938 0.757812 -3 0.75 -3.15625 C 0.75 -3.320312 0.742188 -3.46875 0.734375 -3.59375 C 0.722656 -3.71875 0.710938 -3.789062 0.703125 -3.8125 L 0.171875 -3.9375 L 0.1875 -4.359375 L 2.515625 -4.359375 L 2.53125 -3.9375 Z M 2.046875 -3.796875 "/></g></g></g><g fill="#737373" fill-opacity="1"><g transform="translate(116.601656, 44.639728)"><g><path d="M 1.96875 0.0625 C 1.625 0.0625 1.320312 -0.015625 1.0625 -0.171875 C 0.800781 -0.328125 0.597656 -0.53125 0.453125 -0.78125 C 0.304688 -1.039062 0.234375 -1.316406 0.234375 -1.609375 C 0.234375 -1.953125 0.316406 -2.253906 0.484375 -2.515625 C 0.648438 -2.773438 0.867188 -2.976562 1.140625 -3.125 C 1.410156 -3.28125 1.703125 -3.359375 2.015625 -3.359375 C 2.460938 -3.359375 2.816406 -3.222656 3.078125 -2.953125 C 3.335938 -2.691406 3.46875 -2.34375 3.46875 -1.90625 L 3.46875 -1.703125 L 1.3125 -1.703125 L 1.3125 -2.125 L 2.578125 -2.125 L 2.4375 -1.890625 L 2.4375 -2.203125 C 2.4375 -2.410156 2.394531 -2.578125 2.3125 -2.703125 C 2.226562 -2.828125 2.109375 -2.890625 1.953125 -2.890625 C 1.835938 -2.890625 1.738281 -2.859375 1.65625 -2.796875 C 1.582031 -2.734375 1.519531 -2.640625 1.46875 -2.515625 C 1.425781 -2.398438 1.40625 -2.242188 1.40625 -2.046875 L 1.40625 -1.859375 C 1.40625 -1.546875 1.492188 -1.285156 1.671875 -1.078125 C 1.847656 -0.878906 2.09375 -0.78125 2.40625 -0.78125 C 2.570312 -0.78125 2.722656 -0.8125 2.859375 -0.875 C 3.003906 -0.9375 3.140625 -1.035156 3.265625 -1.171875 L 3.515625 -0.9375 C 3.378906 -0.613281 3.171875 -0.363281 2.890625 -0.1875 C 2.617188 -0.0195312 2.3125 0.0625 1.96875 0.0625 Z M 1.96875 0.0625 "/></g></g></g><g fill="#737373" fill-opacity="1"><g transform="translate(120.289569, 44.639728)"><g><path d="M 0.0625 0 L 0.046875 -0.40625 L 0.53125 -0.515625 C 0.53125 -0.585938 0.535156 -0.703125 0.546875 -0.859375 C 0.554688 -1.015625 0.5625 -1.171875 0.5625 -1.328125 C 0.570312 -1.492188 0.578125 -1.625 0.578125 -1.71875 L 0.578125 -2.671875 C 0.578125 -2.835938 0.570312 -2.992188 0.5625 -3.140625 C 0.5625 -3.285156 0.5625 -3.429688 0.5625 -3.578125 C 0.5625 -3.722656 0.554688 -3.859375 0.546875 -3.984375 C 0.546875 -4.109375 0.539062 -4.222656 0.53125 -4.328125 L -0.015625 -4.40625 L -0.03125 -4.78125 L 1.609375 -5.1875 L 1.84375 -5.046875 C 1.832031 -4.835938 1.820312 -4.640625 1.8125 -4.453125 C 1.8125 -4.265625 1.8125 -4.046875 1.8125 -3.796875 C 1.8125 -3.554688 1.804688 -3.257812 1.796875 -2.90625 L 1.796875 -1.890625 C 1.796875 -1.503906 1.796875 -1.191406 1.796875 -0.953125 C 1.804688 -0.722656 1.816406 -0.578125 1.828125 -0.515625 L 2.3125 -0.40625 L 2.28125 0 Z M 0.0625 0 "/></g></g></g></svg>