<svg xmlns="http://www.w3.org/2000/svg" xmlns:xlink="http://www.w3.org/1999/xlink" width="107" zoomAndPan="magnify" viewBox="0 0 80.25 37.5" height="50" preserveAspectRatio="xMidYMid meet" version="1.0"><defs><g/><clipPath id="id1"><path d="M 0.15625 5 L 79.351562 5 L 79.351562 7 L 0.15625 7 Z M 0.15625 5 " clip-rule="nonzero"/></clipPath><clipPath id="id2"><path d="M 0.15625 27 L 79.351562 27 L 79.351562 29 L 0.15625 29 Z M 0.15625 27 " clip-rule="nonzero"/></clipPath><clipPath id="id3"><path d="M 0.15625 21 L 5 21 L 5 24 L 0.15625 24 Z M 0.15625 21 " clip-rule="nonzero"/></clipPath><clipPath id="id4"><path d="M 0.15625 16 L 5 16 L 5 18 L 0.15625 18 Z M 0.15625 16 " clip-rule="nonzero"/></clipPath><clipPath id="id5"><path d="M 0.15625 10 L 5 10 L 5 13 L 0.15625 13 Z M 0.15625 10 " clip-rule="nonzero"/></clipPath></defs><g clip-path="url(#id1)"><path stroke-linecap="round" transform="matrix(0.741756, 0, 0, 0.740132, 0.157895, 5.995067)" fill="none" stroke-linejoin="miter" d="M 0.498073 0.00138725 L 106.280586 0.00138725 " stroke="#404040" stroke-width="1" stroke-opacity="1" stroke-miterlimit="4"/></g><g clip-path="url(#id2)"><path stroke-linecap="round" transform="matrix(0.741756, 0, 0, 0.740132, 0.157895, 28.031855)" fill="none" stroke-linejoin="miter" d="M 0.498073 -0.000816822 L 106.280586 -0.000816822 " stroke="#473c38" stroke-width="1" stroke-opacity="1" stroke-miterlimit="4"/></g><g fill="#404040" fill-opacity="1"><g transform="translate(8.640089, 23.149044)"><g><path d="M 6.894531 -10.03125 C 6.894531 -11.46875 6.117188 -12.234375 4.695312 -12.234375 L 2.980469 -12.234375 C 1.542969 -12.234375 0.765625 -11.46875 0.765625 -10.03125 L 0.765625 -2.203125 C 0.765625 -0.765625 1.542969 0 2.980469 0 L 4.695312 0 C 6.117188 0 6.894531 -0.765625 6.894531 -2.203125 L 6.894531 -3.851562 C 6.894531 -4.007812 6.804688 -4.097656 6.652344 -4.097656 L 5.121094 -4.097656 C 4.953125 -4.097656 4.878906 -4.007812 4.878906 -3.851562 L 4.878906 -2.628906 C 4.878906 -2.21875 4.664062 -2.019531 4.265625 -2.019531 L 3.472656 -2.019531 C 3.074219 -2.019531 2.859375 -2.21875 2.859375 -2.628906 L 2.859375 -9.601562 C 2.859375 -10 3.058594 -10.214844 3.472656 -10.214844 L 4.265625 -10.214844 C 4.664062 -10.214844 4.878906 -10 4.878906 -9.601562 L 4.878906 -8.378906 C 4.878906 -8.226562 4.953125 -8.136719 5.121094 -8.136719 L 6.652344 -8.136719 C 6.804688 -8.136719 6.894531 -8.226562 6.894531 -8.378906 Z M 6.894531 -10.03125 "/></g></g></g><g fill="#404040" fill-opacity="1"><g transform="translate(18.028223, 23.149044)"><g><path d="M 4.800781 -7.125 L 2.84375 -7.125 L 2.84375 -11.988281 C 2.84375 -12.140625 2.753906 -12.234375 2.597656 -12.234375 L 1.023438 -12.234375 C 0.839844 -12.234375 0.765625 -12.140625 0.765625 -11.988281 L 0.765625 -0.246094 C 0.765625 -0.0898438 0.839844 0 1.023438 0 L 2.597656 0 C 2.753906 0 2.84375 -0.0898438 2.84375 -0.246094 L 2.84375 -5.105469 L 4.800781 -5.105469 L 4.800781 -0.246094 C 4.800781 -0.0898438 4.894531 0 5.046875 0 L 6.621094 0 C 6.804688 0 6.882812 -0.0898438 6.882812 -0.246094 L 6.882812 -11.988281 C 6.882812 -12.140625 6.804688 -12.234375 6.621094 -12.234375 L 5.046875 -12.234375 C 4.894531 -12.234375 4.800781 -12.140625 4.800781 -11.988281 Z M 4.800781 -7.125 "/></g></g></g><g fill="#404040" fill-opacity="1"><g transform="translate(27.401066, 23.149044)"><g><path d="M 7.050781 -10.03125 C 7.050781 -11.46875 6.285156 -12.234375 4.847656 -12.234375 L 1.007812 -12.234375 C 0.855469 -12.234375 0.765625 -12.140625 0.765625 -11.988281 L 0.765625 -0.246094 C 0.765625 -0.0898438 0.855469 0 1.007812 0 L 2.597656 0 C 2.753906 0 2.84375 -0.0898438 2.84375 -0.246094 L 2.84375 -4.097656 L 3.898438 -4.097656 L 4.925781 -0.214844 C 4.953125 -0.078125 5.03125 0 5.183594 0 L 6.773438 0 C 6.941406 0 7.035156 -0.0898438 6.988281 -0.273438 L 5.933594 -4.28125 C 6.667969 -4.601562 7.050781 -5.277344 7.050781 -6.300781 Z M 2.84375 -6.117188 L 2.84375 -10.214844 L 4.359375 -10.214844 C 4.753906 -10.214844 4.96875 -10 4.96875 -9.601562 L 4.96875 -6.726562 C 4.96875 -6.332031 4.753906 -6.117188 4.359375 -6.117188 Z M 2.84375 -6.117188 "/></g></g></g><g fill="#404040" fill-opacity="1"><g transform="translate(36.942093, 23.149044)"><g><path d="M 1.007812 -12.234375 C 0.839844 -12.234375 0.765625 -12.140625 0.765625 -11.988281 L 0.765625 -0.246094 C 0.765625 -0.0898438 0.839844 0 1.007812 0 L 2.597656 0 C 2.753906 0 2.84375 -0.0898438 2.84375 -0.246094 L 2.84375 -11.988281 C 2.84375 -12.140625 2.753906 -12.234375 2.597656 -12.234375 Z M 1.007812 -12.234375 "/></g></g></g><g fill="#404040" fill-opacity="1"><g transform="translate(42.278514, 23.149044)"><g><path d="M 2.964844 -12.234375 C 1.542969 -12.234375 0.765625 -11.46875 0.765625 -10.03125 L 0.765625 -6.421875 C 0.765625 -6.132812 0.902344 -5.949219 1.175781 -5.855469 L 4.800781 -4.664062 L 4.800781 -2.628906 C 4.800781 -2.21875 4.585938 -2.019531 4.191406 -2.019531 L 3.457031 -2.019531 C 3.074219 -2.019531 2.84375 -2.21875 2.84375 -2.628906 L 2.84375 -3.808594 C 2.84375 -3.976562 2.769531 -4.050781 2.597656 -4.050781 L 1.007812 -4.050781 C 0.855469 -4.050781 0.765625 -3.976562 0.765625 -3.808594 L 0.765625 -2.203125 C 0.765625 -0.765625 1.542969 0 2.964844 0 L 4.679688 0 C 6.117188 0 6.882812 -0.765625 6.882812 -2.203125 L 6.882812 -5.734375 C 6.882812 -6.023438 6.742188 -6.191406 6.484375 -6.300781 L 2.84375 -7.492188 L 2.84375 -9.601562 C 2.84375 -10 3.074219 -10.214844 3.457031 -10.214844 L 4.191406 -10.214844 C 4.601562 -10.214844 4.800781 -10 4.800781 -9.601562 L 4.800781 -8.410156 C 4.800781 -8.257812 4.894531 -8.164062 5.046875 -8.164062 L 6.636719 -8.164062 C 6.804688 -8.164062 6.882812 -8.257812 6.882812 -8.410156 L 6.882812 -10.03125 C 6.882812 -11.46875 6.117188 -12.234375 4.679688 -12.234375 Z M 2.964844 -12.234375 "/></g></g></g><g fill="#404040" fill-opacity="1"><g transform="translate(51.651359, 23.149044)"><g><path d="M 6.867188 -11.988281 C 6.867188 -12.140625 6.804688 -12.234375 6.621094 -12.234375 L 0.992188 -12.234375 C 0.855469 -12.234375 0.765625 -12.140625 0.765625 -11.988281 L 0.765625 -0.246094 C 0.765625 -0.0898438 0.855469 0 0.992188 0 L 6.621094 0 C 6.804688 0 6.867188 -0.0898438 6.867188 -0.246094 L 6.867188 -1.773438 C 6.867188 -1.941406 6.804688 -2.019531 6.621094 -2.019531 L 2.796875 -2.019531 L 2.796875 -5.105469 L 5.71875 -5.105469 C 5.871094 -5.105469 5.964844 -5.199219 5.964844 -5.367188 L 5.964844 -6.882812 C 5.964844 -7.050781 5.871094 -7.140625 5.71875 -7.140625 L 2.796875 -7.140625 L 2.796875 -10.199219 L 6.621094 -10.199219 C 6.804688 -10.199219 6.867188 -10.304688 6.867188 -10.460938 Z M 6.867188 -11.988281 "/></g></g></g><g fill="#404040" fill-opacity="1"><g transform="translate(61.008909, 23.149044)"><g><path d="M 2.84375 -2.019531 L 6.484375 -2.019531 C 6.652344 -2.019531 6.726562 -1.925781 6.726562 -1.773438 L 6.726562 -0.246094 C 6.726562 -0.078125 6.652344 0 6.484375 0 L 1.007812 0 C 0.855469 0 0.765625 -0.078125 0.765625 -0.246094 L 0.765625 -11.988281 C 0.765625 -12.140625 0.855469 -12.234375 1.007812 -12.234375 L 2.597656 -12.234375 C 2.769531 -12.234375 2.84375 -12.140625 2.84375 -11.988281 Z M 2.84375 -2.019531 "/></g></g></g><g fill="#404040" fill-opacity="1"><g transform="translate(70.22886, 23.149044)"><g><path d="M 8.136719 0 C 8.320312 0 8.378906 -0.0898438 8.347656 -0.261719 L 5.8125 -12.019531 C 5.78125 -12.171875 5.6875 -12.234375 5.550781 -12.234375 L 3.425781 -12.234375 C 3.289062 -12.234375 3.195312 -12.171875 3.164062 -12.019531 L 0.625 -0.261719 C 0.582031 -0.0898438 0.65625 0 0.824219 0 L 2.460938 0 C 2.597656 0 2.675781 -0.078125 2.707031 -0.214844 L 3.121094 -2.445312 L 5.839844 -2.445312 L 6.269531 -0.214844 C 6.300781 -0.078125 6.375 0 6.515625 0 Z M 5.460938 -4.21875 L 3.5 -4.21875 L 4.480469 -9.558594 Z M 5.460938 -4.21875 "/></g></g></g><g fill="#404040" fill-opacity="1"><g transform="translate(4.543653, 27.657609)"><g/></g></g><g clip-path="url(#id3)"><g fill="#404040" fill-opacity="1"><g transform="translate(4.543653, 23.391763)"><g><path d="M -0.765625 -1.398438 C -0.648438 -1.398438 -0.589844 -1.335938 -0.589844 -1.21875 L -0.589844 -0.988281 C -0.589844 -0.871094 -0.648438 -0.8125 -0.765625 -0.8125 L -1.105469 -0.8125 C -1.148438 -0.8125 -1.175781 -0.785156 -1.175781 -0.738281 L -1.175781 -0.292969 C -1.175781 -0.246094 -1.148438 -0.222656 -1.105469 -0.222656 L -0.640625 -0.222656 C -0.222656 -0.222656 0 -0.445312 0 -0.863281 L 0 -1.363281 C 0 -1.777344 -0.222656 -2.003906 -0.640625 -2.003906 L -3.492188 -2.003906 C -3.535156 -2.003906 -3.5625 -1.976562 -3.5625 -1.933594 L -3.5625 -1.46875 C -3.5625 -1.421875 -3.535156 -1.398438 -3.492188 -1.398438 Z M -0.765625 -1.398438 "/></g></g></g></g><g clip-path="url(#id4)"><g fill="#404040" fill-opacity="1"><g transform="translate(4.543653, 18.012174)"><g><path d="M -3.492188 -2 C -3.535156 -2 -3.5625 -1.980469 -3.5625 -1.929688 L -3.5625 -0.289062 C -3.5625 -0.25 -3.535156 -0.222656 -3.492188 -0.222656 L -0.0703125 -0.222656 C -0.0273438 -0.222656 0 -0.25 0 -0.289062 L 0 -1.929688 C 0 -1.980469 -0.0273438 -2 -0.0703125 -2 L -0.515625 -2 C -0.566406 -2 -0.589844 -1.980469 -0.589844 -1.929688 L -0.589844 -0.816406 L -1.488281 -0.816406 L -1.488281 -1.664062 C -1.488281 -1.710938 -1.515625 -1.738281 -1.5625 -1.738281 L -2.003906 -1.738281 C -2.054688 -1.738281 -2.078125 -1.710938 -2.078125 -1.664062 L -2.078125 -0.816406 L -2.972656 -0.816406 L -2.972656 -1.929688 C -2.972656 -1.980469 -3.003906 -2 -3.046875 -2 Z M -3.492188 -2 "/></g></g></g></g><g clip-path="url(#id5)"><g fill="#404040" fill-opacity="1"><g transform="translate(4.543653, 12.637038)"><g><path d="M -0.589844 -0.828125 L -0.589844 -1.886719 C -0.589844 -1.9375 -0.5625 -1.960938 -0.515625 -1.960938 L -0.0703125 -1.960938 C -0.0234375 -1.960938 0 -1.9375 0 -1.886719 L 0 -0.292969 C 0 -0.25 -0.0234375 -0.222656 -0.0703125 -0.222656 L -3.492188 -0.222656 C -3.535156 -0.222656 -3.5625 -0.25 -3.5625 -0.292969 L -3.5625 -0.757812 C -3.5625 -0.804688 -3.535156 -0.828125 -3.492188 -0.828125 Z M -0.589844 -0.828125 "/></g></g></g></g></svg>