<svg xmlns="http://www.w3.org/2000/svg" xmlns:xlink="http://www.w3.org/1999/xlink" width="250" zoomAndPan="magnify" viewBox="0 0 187.5 97.5" height="130" preserveAspectRatio="xMidYMid meet" version="1.0"><defs><g/><clipPath id="id1"><path d="M 72.886719 43.648438 L 76.683594 43.648438 L 76.683594 46.378906 L 72.886719 46.378906 Z M 72.886719 43.648438 " clip-rule="nonzero"/></clipPath><clipPath id="id2"><path d="M 75.484375 46.273438 C 75.550781 46.285156 75.847656 46.316406 76.0625 46.125 C 76.320312 45.894531 76.355469 45.417969 76.082031 45.023438 C 76.082031 45.023438 76.445312 44.722656 76.628906 44.382812 C 76.691406 44.265625 76.691406 44.121094 76.613281 44.015625 C 76.566406 43.949219 76.453125 43.945312 76.324219 44.007812 C 76.28125 44.03125 76.226562 44.015625 76.203125 43.972656 C 76.105469 43.582031 75.753906 43.792969 75.753906 43.792969 C 75.707031 43.820312 75.644531 43.851562 75.574219 43.882812 C 75.101562 44.089844 73.222656 44.960938 72.957031 44.953125 C 73.070312 45.039062 74.726562 46.175781 75.484375 46.273438 Z M 75.484375 46.273438 " clip-rule="nonzero"/></clipPath><clipPath id="id3"><path d="M 75.484375 46.273438 C 75.550781 46.285156 75.847656 46.316406 76.0625 46.125 C 76.320312 45.894531 76.355469 45.417969 76.082031 45.023438 C 76.082031 45.023438 76.445312 44.722656 76.628906 44.382812 C 76.691406 44.265625 76.691406 44.121094 76.613281 44.015625 C 76.566406 43.949219 76.453125 43.945312 76.324219 44.007812 C 76.28125 44.03125 76.226562 44.015625 76.203125 43.972656 C 76.105469 43.582031 75.753906 43.792969 75.753906 43.792969 C 75.707031 43.820312 75.644531 43.851562 75.574219 43.882812 C 75.101562 44.089844 73.222656 44.960938 72.957031 44.953125 C 73.070312 45.039062 74.726562 46.175781 75.484375 46.273438 " clip-rule="nonzero"/></clipPath><clipPath id="id4"><path d="M 78.058594 44.929688 L 74.796875 41.714844 L 71.589844 44.96875 L 74.851562 48.183594 Z M 78.058594 44.929688 " clip-rule="nonzero"/></clipPath><linearGradient x1="-0.0108299" gradientTransform="matrix(-2.652656, 2.694727, -2.693619, -2.653746, 76.494845, 43.521673)" y1="0" x2="1.183227" gradientUnits="userSpaceOnUse" y2="0" id="id5"><stop stop-opacity="1" stop-color="rgb(91.398621%, 29.399109%, 28.599548%)" offset="0"/><stop stop-opacity="1" stop-color="rgb(91.398621%, 29.399109%, 28.599548%)" offset="0.015625"/><stop stop-opacity="1" stop-color="rgb(91.300964%, 29.301453%, 28.501892%)" offset="0.0234375"/><stop stop-opacity="1" stop-color="rgb(91.011047%, 29.01001%, 28.302002%)" offset="0.03125"/><stop stop-opacity="1" stop-color="rgb(90.625%, 28.623962%, 28.115845%)" offset="0.0390625"/><stop stop-opacity="1" stop-color="rgb(90.238953%, 28.237915%, 27.857971%)" offset="0.046875"/><stop stop-opacity="1" stop-color="rgb(89.842224%, 27.862549%, 27.590942%)" offset="0.0507812"/><stop stop-opacity="1" stop-color="rgb(89.639282%, 27.679443%, 27.49939%)" offset="0.0546875"/><stop stop-opacity="1" stop-color="rgb(89.431763%, 27.500916%, 27.410889%)" offset="0.0585937"/><stop stop-opacity="1" stop-color="rgb(89.224243%, 27.323914%, 27.323914%)" offset="0.0625"/><stop stop-opacity="1" stop-color="rgb(89.111328%, 27.130127%, 27.210999%)" offset="0.0703125"/><stop stop-opacity="1" stop-color="rgb(88.925171%, 26.74408%, 27.024841%)" offset="0.078125"/><stop stop-opacity="1" stop-color="rgb(88.658142%, 26.358032%, 26.757812%)" offset="0.0859375"/><stop stop-opacity="1" stop-color="rgb(88.172913%, 25.872803%, 26.431274%)" offset="0.0898437"/><stop stop-opacity="1" stop-color="rgb(87.879944%, 25.579834%, 26.298523%)" offset="0.09375"/><stop stop-opacity="1" stop-color="rgb(87.689209%, 25.382996%, 26.098633%)" offset="0.0976562"/><stop stop-opacity="1" stop-color="rgb(87.5%, 25.187683%, 25.898743%)" offset="0.101562"/><stop stop-opacity="1" stop-color="rgb(87.298584%, 25.001526%, 25.756836%)" offset="0.105469"/><stop stop-opacity="1" stop-color="rgb(87.098694%, 24.815369%, 25.614929%)" offset="0.109375"/><stop stop-opacity="1" stop-color="rgb(86.898804%, 24.629211%, 25.556946%)" offset="0.113281"/><stop stop-opacity="1" stop-color="rgb(86.698914%, 24.443054%, 25.498962%)" offset="0.117187"/><stop stop-opacity="1" stop-color="rgb(86.499023%, 24.256897%, 25.299072%)" offset="0.121094"/><stop stop-opacity="1" stop-color="rgb(86.299133%, 24.07074%, 25.099182%)" offset="0.125"/><stop stop-opacity="1" stop-color="rgb(86.099243%, 23.884583%, 24.998474%)" offset="0.128906"/><stop stop-opacity="1" stop-color="rgb(85.899353%, 23.698425%, 24.897766%)" offset="0.132812"/><stop stop-opacity="1" stop-color="rgb(85.699463%, 23.461914%, 24.798584%)" offset="0.136719"/><stop stop-opacity="1" stop-color="rgb(85.499573%, 23.225403%, 24.699402%)" offset="0.140625"/><stop stop-opacity="1" stop-color="rgb(85.299683%, 23.039246%, 24.499512%)" offset="0.144531"/><stop stop-opacity="1" stop-color="rgb(85.099792%, 22.853088%, 24.299622%)" offset="0.148437"/><stop stop-opacity="1" stop-color="rgb(84.898376%, 22.625732%, 24.189758%)" offset="0.152344"/><stop stop-opacity="1" stop-color="rgb(84.698486%, 22.399902%, 24.081421%)" offset="0.15625"/><stop stop-opacity="1" stop-color="rgb(84.498596%, 22.198486%, 23.989868%)" offset="0.160156"/><stop stop-opacity="1" stop-color="rgb(84.298706%, 21.998596%, 23.899841%)" offset="0.164062"/><stop stop-opacity="1" stop-color="rgb(84.098816%, 21.798706%, 23.698425%)" offset="0.167969"/><stop stop-opacity="1" stop-color="rgb(83.898926%, 21.598816%, 23.498535%)" offset="0.171875"/><stop stop-opacity="1" stop-color="rgb(83.699036%, 21.398926%, 23.298645%)" offset="0.175781"/><stop stop-opacity="1" stop-color="rgb(83.499146%, 21.199036%, 23.098755%)" offset="0.179687"/><stop stop-opacity="1" stop-color="rgb(83.299255%, 20.999146%, 22.994995%)" offset="0.183594"/><stop stop-opacity="1" stop-color="rgb(83.099365%, 20.799255%, 22.892761%)" offset="0.1875"/><stop stop-opacity="1" stop-color="rgb(82.832336%, 20.509338%, 22.795105%)" offset="0.191406"/><stop stop-opacity="1" stop-color="rgb(82.565308%, 20.220947%, 22.698975%)" offset="0.195312"/><stop stop-opacity="1" stop-color="rgb(82.406616%, 20.03479%, 22.549438%)" offset="0.203125"/><stop stop-opacity="1" stop-color="rgb(82.061768%, 19.662476%, 22.337341%)" offset="0.210937"/><stop stop-opacity="1" stop-color="rgb(81.672668%, 19.273376%, 22.073364%)" offset="0.214844"/><stop stop-opacity="1" stop-color="rgb(81.471252%, 19.07196%, 21.871948%)" offset="0.21875"/><stop stop-opacity="1" stop-color="rgb(81.251526%, 18.734741%, 21.734619%)" offset="0.222656"/><stop stop-opacity="1" stop-color="rgb(81.031799%, 18.399048%, 21.598816%)" offset="0.226562"/><stop stop-opacity="1" stop-color="rgb(80.845642%, 18.199158%, 21.398926%)" offset="0.230469"/><stop stop-opacity="1" stop-color="rgb(80.659485%, 17.999268%, 21.199036%)" offset="0.234375"/><stop stop-opacity="1" stop-color="rgb(80.473328%, 17.799377%, 21.142578%)" offset="0.238281"/><stop stop-opacity="1" stop-color="rgb(80.28717%, 17.599487%, 21.087646%)" offset="0.242187"/><stop stop-opacity="1" stop-color="rgb(79.942322%, 17.407227%, 20.901489%)" offset="0.246094"/><stop stop-opacity="1" stop-color="rgb(79.598999%, 17.214966%, 20.715332%)" offset="0.25"/><stop stop-opacity="1" stop-color="rgb(79.399109%, 17.028809%, 20.556641%)" offset="0.253906"/><stop stop-opacity="1" stop-color="rgb(79.199219%, 16.842651%, 20.399475%)" offset="0.257812"/><stop stop-opacity="1" stop-color="rgb(78.999329%, 16.60614%, 20.199585%)" offset="0.261719"/><stop stop-opacity="1" stop-color="rgb(78.799438%, 16.369629%, 19.999695%)" offset="0.265625"/><stop stop-opacity="1" stop-color="rgb(78.599548%, 16.183472%, 19.947815%)" offset="0.269531"/><stop stop-opacity="1" stop-color="rgb(78.399658%, 15.997314%, 19.897461%)" offset="0.273437"/><stop stop-opacity="1" stop-color="rgb(78.199768%, 15.647888%, 19.711304%)" offset="0.277344"/><stop stop-opacity="1" stop-color="rgb(77.999878%, 15.299988%, 19.525146%)" offset="0.28125"/><stop stop-opacity="1" stop-color="rgb(77.781677%, 15.098572%, 19.361877%)" offset="0.285156"/><stop stop-opacity="1" stop-color="rgb(77.565002%, 14.898682%, 19.198608%)" offset="0.289062"/><stop stop-opacity="1" stop-color="rgb(77.423096%, 14.689636%, 18.998718%)" offset="0.292969"/><stop stop-opacity="1" stop-color="rgb(77.281189%, 14.482117%, 18.798828%)" offset="0.296875"/><stop stop-opacity="1" stop-color="rgb(77.090454%, 14.289856%, 18.798828%)" offset="0.304687"/><stop stop-opacity="1" stop-color="rgb(76.667786%, 13.867188%, 18.566895%)" offset="0.308594"/><stop stop-opacity="1" stop-color="rgb(76.437378%, 13.63678%, 18.336487%)" offset="0.3125"/><stop stop-opacity="1" stop-color="rgb(76.068115%, 13.450623%, 18.167114%)" offset="0.316406"/><stop stop-opacity="1" stop-color="rgb(75.698853%, 13.264465%, 17.999268%)" offset="0.320312"/><stop stop-opacity="1" stop-color="rgb(75.498962%, 12.88147%, 17.799377%)" offset="0.324219"/><stop stop-opacity="1" stop-color="rgb(75.299072%, 12.5%, 17.599487%)" offset="0.328125"/><stop stop-opacity="1" stop-color="rgb(75.109863%, 12.5%, 17.599487%)" offset="0.335937"/><stop stop-opacity="1" stop-color="rgb(74.534607%, 12.367249%, 17.448425%)" offset="0.339844"/><stop stop-opacity="1" stop-color="rgb(74.14856%, 12.236023%, 17.298889%)" offset="0.34375"/><stop stop-opacity="1" stop-color="rgb(73.722839%, 12.217712%, 17.098999%)" offset="0.347656"/><stop stop-opacity="1" stop-color="rgb(73.298645%, 12.199402%, 16.899109%)" offset="0.351562"/><stop stop-opacity="1" stop-color="rgb(73.100281%, 12.199402%, 16.899109%)" offset="0.355469"/><stop stop-opacity="1" stop-color="rgb(72.903442%, 12.199402%, 16.899109%)" offset="0.359375"/><stop stop-opacity="1" stop-color="rgb(72.563171%, 11.999512%, 16.699219%)" offset="0.363281"/><stop stop-opacity="1" stop-color="rgb(72.2229%, 11.799622%, 16.499329%)" offset="0.367187"/><stop stop-opacity="1" stop-color="rgb(71.839905%, 11.799622%, 16.499329%)" offset="0.371094"/><stop stop-opacity="1" stop-color="rgb(71.458435%, 11.799622%, 16.499329%)" offset="0.375"/><stop stop-opacity="1" stop-color="rgb(71.228027%, 11.642456%, 16.299438%)" offset="0.378906"/><stop stop-opacity="1" stop-color="rgb(70.999146%, 11.486816%, 16.099548%)" offset="0.382812"/><stop stop-opacity="1" stop-color="rgb(70.608521%, 11.442566%, 15.908813%)" offset="0.386719"/><stop stop-opacity="1" stop-color="rgb(70.219421%, 11.399841%, 15.719604%)" offset="0.390625"/><stop stop-opacity="1" stop-color="rgb(69.830322%, 11.399841%, 15.708923%)" offset="0.394531"/><stop stop-opacity="1" stop-color="rgb(69.442749%, 11.399841%, 15.699768%)" offset="0.398437"/><stop stop-opacity="1" stop-color="rgb(69.219971%, 11.198425%, 15.499878%)" offset="0.402344"/><stop stop-opacity="1" stop-color="rgb(68.998718%, 10.998535%, 15.299988%)" offset="0.40625"/><stop stop-opacity="1" stop-color="rgb(68.647766%, 10.998535%, 15.299988%)" offset="0.410156"/><stop stop-opacity="1" stop-color="rgb(68.29834%, 10.998535%, 15.299988%)" offset="0.414062"/><stop stop-opacity="1" stop-color="rgb(67.945862%, 10.861206%, 15.098572%)" offset="0.417969"/><stop stop-opacity="1" stop-color="rgb(67.593384%, 10.725403%, 14.898682%)" offset="0.421875"/><stop stop-opacity="1" stop-color="rgb(67.422485%, 10.661316%, 14.775085%)" offset="0.429687"/><stop stop-opacity="1" stop-color="rgb(66.816711%, 10.598755%, 14.575195%)" offset="0.433594"/><stop stop-opacity="1" stop-color="rgb(66.381836%, 10.598755%, 14.498901%)" offset="0.4375"/><stop stop-opacity="1" stop-color="rgb(66.140747%, 10.453796%, 14.353943%)" offset="0.441406"/><stop stop-opacity="1" stop-color="rgb(65.899658%, 10.308838%, 14.208984%)" offset="0.445312"/><stop stop-opacity="1" stop-color="rgb(65.568542%, 10.253906%, 14.154053%)" offset="0.449219"/><stop stop-opacity="1" stop-color="rgb(65.237427%, 10.198975%, 14.099121%)" offset="0.453125"/><stop stop-opacity="1" stop-color="rgb(64.849854%, 10.198975%, 13.899231%)" offset="0.457031"/><stop stop-opacity="1" stop-color="rgb(64.463806%, 10.198975%, 13.699341%)" offset="0.460937"/><stop stop-opacity="1" stop-color="rgb(64.277649%, 9.999084%, 13.699341%)" offset="0.464844"/><stop stop-opacity="1" stop-color="rgb(64.091492%, 9.799194%, 13.699341%)" offset="0.46875"/><stop stop-opacity="1" stop-color="rgb(63.65509%, 9.799194%, 13.499451%)" offset="0.472656"/><stop stop-opacity="1" stop-color="rgb(63.220215%, 9.799194%, 13.299561%)" offset="0.476562"/><stop stop-opacity="1" stop-color="rgb(62.95929%, 9.799194%, 13.172913%)" offset="0.480469"/><stop stop-opacity="1" stop-color="rgb(62.69989%, 9.799194%, 13.047791%)" offset="0.484375"/><stop stop-opacity="1" stop-color="rgb(62.437439%, 9.599304%, 12.973022%)" offset="0.488281"/><stop stop-opacity="1" stop-color="rgb(62.174988%, 9.399414%, 12.89978%)" offset="0.492187"/><stop stop-opacity="1" stop-color="rgb(61.886597%, 9.399414%, 12.800598%)" offset="0.496094"/><stop stop-opacity="1" stop-color="rgb(61.599731%, 9.399414%, 12.702942%)" offset="0.5"/><stop stop-opacity="1" stop-color="rgb(61.314392%, 9.399414%, 12.600708%)" offset="0.503906"/><stop stop-opacity="1" stop-color="rgb(61.030579%, 9.399414%, 12.5%)" offset="0.507812"/><stop stop-opacity="1" stop-color="rgb(60.714722%, 9.199524%, 12.428284%)" offset="0.511719"/><stop stop-opacity="1" stop-color="rgb(60.398865%, 8.999634%, 12.358093%)" offset="0.515625"/><stop stop-opacity="1" stop-color="rgb(60.092163%, 8.999634%, 12.278748%)" offset="0.519531"/><stop stop-opacity="1" stop-color="rgb(59.786987%, 8.999634%, 12.199402%)" offset="0.523438"/><stop stop-opacity="1" stop-color="rgb(59.40094%, 8.906555%, 11.999512%)" offset="0.527344"/><stop stop-opacity="1" stop-color="rgb(59.014893%, 8.815002%, 11.799622%)" offset="0.53125"/><stop stop-opacity="1" stop-color="rgb(58.828735%, 8.706665%, 11.799622%)" offset="0.539062"/><stop stop-opacity="1" stop-color="rgb(58.320618%, 8.599854%, 11.599731%)" offset="0.542969"/><stop stop-opacity="1" stop-color="rgb(57.998657%, 8.599854%, 11.399841%)" offset="0.546875"/><stop stop-opacity="1" stop-color="rgb(57.76062%, 8.547974%, 11.399841%)" offset="0.550781"/><stop stop-opacity="1" stop-color="rgb(57.522583%, 8.49762%, 11.399841%)" offset="0.554688"/><stop stop-opacity="1" stop-color="rgb(57.209778%, 8.348083%, 11.198425%)" offset="0.558594"/><stop stop-opacity="1" stop-color="rgb(56.898499%, 8.198547%, 10.998535%)" offset="0.5625"/><stop stop-opacity="1" stop-color="rgb(56.625366%, 8.198547%, 10.998535%)" offset="0.566406"/><stop stop-opacity="1" stop-color="rgb(56.35376%, 8.198547%, 10.998535%)" offset="0.570312"/><stop stop-opacity="1" stop-color="rgb(56.025696%, 8.139038%, 10.798645%)" offset="0.574219"/><stop stop-opacity="1" stop-color="rgb(55.699158%, 8.081055%, 10.598755%)" offset="0.578125"/><stop stop-opacity="1" stop-color="rgb(55.453491%, 7.939148%, 10.598755%)" offset="0.582031"/><stop stop-opacity="1" stop-color="rgb(55.209351%, 7.798767%, 10.598755%)" offset="0.585938"/><stop stop-opacity="1" stop-color="rgb(55.023193%, 7.798767%, 10.398865%)" offset="0.589844"/><stop stop-opacity="1" stop-color="rgb(54.837036%, 7.798767%, 10.198975%)" offset="0.59375"/><stop stop-opacity="1" stop-color="rgb(54.400635%, 7.748413%, 10.198975%)" offset="0.597656"/><stop stop-opacity="1" stop-color="rgb(53.964233%, 7.698059%, 10.198975%)" offset="0.601562"/><stop stop-opacity="1" stop-color="rgb(53.778076%, 7.598877%, 9.999084%)" offset="0.605469"/><stop stop-opacity="1" stop-color="rgb(53.591919%, 7.499695%, 9.799194%)" offset="0.609375"/><stop stop-opacity="1" stop-color="rgb(53.245544%, 7.499695%, 9.799194%)" offset="0.613281"/><stop stop-opacity="1" stop-color="rgb(52.89917%, 7.499695%, 9.799194%)" offset="0.617188"/><stop stop-opacity="1" stop-color="rgb(52.679443%, 7.499695%, 9.599304%)" offset="0.621094"/><stop stop-opacity="1" stop-color="rgb(52.461243%, 7.499695%, 9.399414%)" offset="0.625"/><stop stop-opacity="1" stop-color="rgb(52.31781%, 7.299805%, 9.399414%)" offset="0.628906"/><stop stop-opacity="1" stop-color="rgb(52.175903%, 7.099915%, 9.399414%)" offset="0.632812"/><stop stop-opacity="1" stop-color="rgb(51.789856%, 7.099915%, 9.20105%)" offset="0.636719"/><stop stop-opacity="1" stop-color="rgb(51.403809%, 7.099915%, 9.002686%)" offset="0.640625"/><stop stop-opacity="1" stop-color="rgb(51.167297%, 7.099915%, 9.00116%)" offset="0.644531"/><stop stop-opacity="1" stop-color="rgb(50.930786%, 7.099915%, 8.999634%)" offset="0.648438"/><stop stop-opacity="1" stop-color="rgb(50.744629%, 6.898499%, 8.799744%)" offset="0.652344"/><stop stop-opacity="1" stop-color="rgb(50.558472%, 6.698608%, 8.599854%)" offset="0.65625"/><stop stop-opacity="1" stop-color="rgb(50.178528%, 6.698608%, 8.599854%)" offset="0.660156"/><stop stop-opacity="1" stop-color="rgb(49.798584%, 6.698608%, 8.599854%)" offset="0.664062"/><stop stop-opacity="1" stop-color="rgb(49.606323%, 6.698608%, 8.406067%)" offset="0.671875"/><stop stop-opacity="1" stop-color="rgb(49.206543%, 6.698608%, 8.206177%)" offset="0.675781"/><stop stop-opacity="1" stop-color="rgb(48.999023%, 6.698608%, 8.198547%)" offset="0.679688"/><stop stop-opacity="1" stop-color="rgb(48.783875%, 6.498718%, 8.183289%)" offset="0.683594"/><stop stop-opacity="1" stop-color="rgb(48.570251%, 6.298828%, 8.169556%)" offset="0.6875"/><stop stop-opacity="1" stop-color="rgb(48.184204%, 6.298828%, 7.983398%)" offset="0.691406"/><stop stop-opacity="1" stop-color="rgb(47.799683%, 6.298828%, 7.798767%)" offset="0.695312"/><stop stop-opacity="1" stop-color="rgb(47.659302%, 6.298828%, 7.798767%)" offset="0.703125"/><stop stop-opacity="1" stop-color="rgb(47.30835%, 6.124878%, 7.669067%)" offset="0.707031"/><stop stop-opacity="1" stop-color="rgb(47.099304%, 5.952454%, 7.539368%)" offset="0.710938"/><stop stop-opacity="1" stop-color="rgb(46.899414%, 5.924988%, 7.519531%)" offset="0.714844"/><stop stop-opacity="1" stop-color="rgb(46.699524%, 5.899048%, 7.499695%)" offset="0.71875"/><stop stop-opacity="1" stop-color="rgb(46.499634%, 5.899048%, 7.305908%)" offset="0.722656"/><stop stop-opacity="1" stop-color="rgb(46.299744%, 5.899048%, 7.112122%)" offset="0.726562"/><stop stop-opacity="1" stop-color="rgb(45.918274%, 5.899048%, 7.106018%)" offset="0.730469"/><stop stop-opacity="1" stop-color="rgb(45.536804%, 5.899048%, 7.099915%)" offset="0.734375"/><stop stop-opacity="1" stop-color="rgb(45.350647%, 5.699158%, 7.099915%)" offset="0.738281"/><stop stop-opacity="1" stop-color="rgb(45.16449%, 5.499268%, 7.099915%)" offset="0.742188"/><stop stop-opacity="1" stop-color="rgb(44.978333%, 5.499268%, 6.898499%)" offset="0.746094"/><stop stop-opacity="1" stop-color="rgb(44.792175%, 5.499268%, 6.698608%)" offset="0.75"/><stop stop-opacity="1" stop-color="rgb(44.606018%, 5.499268%, 6.698608%)" offset="0.757812"/><stop stop-opacity="1" stop-color="rgb(44.233704%, 5.499268%, 6.698608%)" offset="0.765625"/><stop stop-opacity="1" stop-color="rgb(43.891907%, 5.418396%, 6.498718%)" offset="0.769531"/><stop stop-opacity="1" stop-color="rgb(43.737793%, 5.337524%, 6.298828%)" offset="0.773438"/><stop stop-opacity="1" stop-color="rgb(43.544006%, 5.218506%, 6.298828%)" offset="0.78125"/><stop stop-opacity="1" stop-color="rgb(43.157959%, 5.099487%, 6.231689%)" offset="0.789062"/><stop stop-opacity="1" stop-color="rgb(42.78717%, 5.099487%, 6.031799%)" offset="0.796875"/><stop stop-opacity="1" stop-color="rgb(42.449951%, 5.099487%, 5.899048%)" offset="0.804688"/><stop stop-opacity="1" stop-color="rgb(42.146301%, 5.046082%, 5.899048%)" offset="0.8125"/><stop stop-opacity="1" stop-color="rgb(41.934204%, 4.846191%, 5.834961%)" offset="0.820312"/><stop stop-opacity="1" stop-color="rgb(41.705322%, 4.699707%, 5.635071%)" offset="0.828125"/><stop stop-opacity="1" stop-color="rgb(41.369629%, 4.699707%, 5.499268%)" offset="0.84375"/><stop stop-opacity="1" stop-color="rgb(41.19873%, 4.699707%, 5.499268%)" offset="0.875"/><stop stop-opacity="1" stop-color="rgb(41.19873%, 4.699707%, 5.499268%)" offset="1"/></linearGradient><clipPath id="id6"><path d="M 74 31 L 86.167969 31 L 86.167969 41 L 74 41 Z M 74 31 " clip-rule="nonzero"/></clipPath><clipPath id="id7"><path d="M 63 36 L 81 36 L 81 64.304688 L 63 64.304688 Z M 63 36 " clip-rule="nonzero"/></clipPath></defs><path fill="#940e60" d="M 75.515625 42.28125 C 76.605469 42.660156 77.632812 42.628906 77.632812 42.628906 C 78.484375 42.566406 78.261719 41.898438 78.261719 41.898438 L 76.863281 38.402344 C 76.480469 37.496094 76.96875 36.953125 76.96875 36.953125 C 77.003906 37.398438 77.382812 37.472656 77.382812 37.472656 C 77.285156 37.304688 77.273438 37.027344 77.273438 37.027344 C 77.476562 37.410156 77.851562 37.386719 77.851562 37.386719 C 77.640625 37.253906 77.578125 36.964844 77.578125 36.964844 C 77.761719 37.308594 78.164062 37.179688 78.164062 37.179688 C 77.910156 37.097656 77.875 36.9375 77.875 36.9375 C 78.335938 37.042969 78.914062 36.515625 78.914062 36.515625 C 78.539062 36.707031 77.945312 36.535156 77.945312 36.535156 C 77.382812 36.292969 77.144531 36.457031 77.0625 36.558594 C 77.023438 36.601562 76.980469 36.640625 76.929688 36.675781 C 76.0625 37.257812 76.679688 38.890625 76.679688 38.890625 C 76.679688 38.890625 77.601562 41.109375 77.867188 41.921875 C 78.128906 42.730469 75.515625 42.28125 75.515625 42.28125 " fill-opacity="1" fill-rule="nonzero"/><path fill="#940e60" d="M 75.183594 35.753906 C 75.367188 35.175781 74.300781 34.535156 74.300781 34.535156 C 73.964844 34.335938 73.484375 34.152344 73.085938 34.015625 C 72.847656 33.921875 72.605469 33.847656 72.371094 33.789062 C 71.199219 33.496094 70.160156 33.566406 70.160156 33.566406 C 72.914062 34.101562 74.347656 35.046875 74.902344 35.5 L 75.183594 35.753906 " fill-opacity="1" fill-rule="nonzero"/><path fill="#940e60" d="M 73.105469 37.035156 C 73.253906 36.769531 73.042969 36.441406 73.042969 36.441406 C 73.535156 36.695312 73.722656 37.175781 73.722656 37.175781 C 73.757812 36.871094 73.511719 36.539062 73.511719 36.539062 C 74.089844 36.773438 74.40625 37.292969 74.40625 37.292969 C 74.355469 36.910156 73.972656 36.578125 73.972656 36.578125 C 74.414062 36.683594 74.8125 37.132812 74.8125 37.132812 C 74.699219 36.785156 74.320312 36.519531 74.320312 36.519531 L 74.753906 36.636719 C 74.375 36.328125 74.382812 35.457031 74.382812 35.457031 C 74.203125 36.640625 72.226562 35.640625 72.226562 35.640625 C 70.933594 35.074219 70.859375 34.242188 70.859375 34.242188 C 70.652344 34.898438 71.011719 35.265625 71.011719 35.265625 C 70.679688 35.425781 70.269531 35.183594 70.269531 35.183594 C 70.617188 35.699219 71.210938 35.546875 71.210938 35.546875 C 71.042969 35.980469 70.472656 35.84375 70.472656 35.84375 C 71.144531 36.183594 71.5 35.855469 71.5 35.855469 C 71.433594 36.203125 70.96875 36.207031 70.96875 36.207031 C 71.457031 36.300781 71.820312 36.140625 71.820312 36.140625 C 71.828125 36.296875 71.441406 36.40625 71.441406 36.40625 C 72.15625 36.550781 72.445312 36.308594 72.445312 36.308594 C 72.585938 36.316406 72.652344 36.820312 72.652344 36.820312 C 72.78125 36.621094 72.761719 36.394531 72.761719 36.394531 C 73.078125 36.675781 73.105469 37.035156 73.105469 37.035156 " fill-opacity="1" fill-rule="nonzero"/><g clip-path="url(#id1)"><g clip-path="url(#id2)"><g clip-path="url(#id3)"><g clip-path="url(#id4)"><path fill="url(#id5)" d="M 78.015625 44.960938 L 74.789062 41.785156 L 71.625 45.003906 L 74.847656 48.179688 Z M 78.015625 44.960938 " fill-rule="nonzero"/></g></g></g></g><path fill="#940e60" d="M 85.71875 34.242188 C 85.71875 34.242188 81.691406 25.394531 74.085938 30.542969 C 74.085938 30.542969 80.292969 28.808594 85.71875 34.242188 " fill-opacity="1" fill-rule="nonzero"/><g clip-path="url(#id6)"><path fill="#940e60" d="M 74.085938 31.160156 C 74.085938 31.160156 82.417969 32.335938 86.164062 40.839844 C 86.164062 40.839844 86.054688 30.488281 74.085938 31.160156 " fill-opacity="1" fill-rule="nonzero"/></g><path fill="#940e60" d="M 73.859375 31.589844 C 73.859375 31.589844 77.695312 33.542969 80.65625 37.929688 C 80.65625 37.929688 80.167969 33.671875 73.859375 31.589844 " fill-opacity="1" fill-rule="nonzero"/><path fill="#940e60" d="M 71.058594 42.628906 C 71.058594 42.628906 67.703125 39.0625 68.484375 35.144531 C 68.484375 35.144531 66.304688 40.292969 71.058594 42.628906 " fill-opacity="1" fill-rule="nonzero"/><path fill="#940e60" d="M 74.8125 52.15625 C 74.8125 52.15625 65.464844 45.273438 67.703125 35.984375 C 67.703125 35.984375 62.835938 44.992188 74.8125 52.15625 " fill-opacity="1" fill-rule="nonzero"/><g clip-path="url(#id7)"><path fill="#940e60" d="M 73.183594 55.738281 C 73.183594 55.738281 60.320312 47.792969 67.03125 36.410156 C 67.03125 36.410156 57.746094 48.183594 71.058594 55.792969 C 71.058594 55.792969 77.546875 58.535156 80.125 64.296875 C 80.125 64.296875 78.941406 59.261719 73.183594 55.738281 " fill-opacity="1" fill-rule="nonzero"/></g><g fill="#737373" fill-opacity="1"><g transform="translate(81.409625, 57.760199)"><g><path d="M 3.65625 0.09375 C 2.988281 0.09375 2.410156 -0.0195312 1.921875 -0.25 C 1.429688 -0.476562 1.054688 -0.800781 0.796875 -1.21875 C 0.535156 -1.632812 0.40625 -2.128906 0.40625 -2.703125 C 0.40625 -3.203125 0.5 -3.644531 0.6875 -4.03125 C 0.875 -4.414062 1.128906 -4.734375 1.453125 -4.984375 C 1.773438 -5.234375 2.144531 -5.421875 2.5625 -5.546875 C 2.988281 -5.671875 3.441406 -5.734375 3.921875 -5.734375 C 4.234375 -5.734375 4.535156 -5.695312 4.828125 -5.625 C 5.128906 -5.5625 5.375 -5.484375 5.5625 -5.390625 L 5.625 -3.828125 L 4.9375 -3.78125 L 4.546875 -4.859375 C 4.429688 -4.910156 4.316406 -4.945312 4.203125 -4.96875 C 4.085938 -4.988281 3.960938 -5 3.828125 -5 C 3.535156 -5 3.273438 -4.921875 3.046875 -4.765625 C 2.816406 -4.617188 2.640625 -4.394531 2.515625 -4.09375 C 2.390625 -3.800781 2.328125 -3.425781 2.328125 -2.96875 C 2.328125 -2.507812 2.398438 -2.109375 2.546875 -1.765625 C 2.691406 -1.421875 2.882812 -1.15625 3.125 -0.96875 C 3.375 -0.78125 3.648438 -0.6875 3.953125 -0.6875 C 4.140625 -0.6875 4.304688 -0.707031 4.453125 -0.75 C 4.597656 -0.789062 4.726562 -0.859375 4.84375 -0.953125 L 5.15625 -1.859375 L 5.9375 -1.78125 L 5.65625 -0.4375 C 5.457031 -0.289062 5.171875 -0.164062 4.796875 -0.0625 C 4.429688 0.0390625 4.050781 0.09375 3.65625 0.09375 Z M 3.65625 0.09375 "/></g></g></g><g fill="#737373" fill-opacity="1"><g transform="translate(87.54899, 57.760199)"><g><path d="M 0.109375 0 L 0.09375 -0.5 L 0.6875 -0.671875 C 0.6875 -0.765625 0.691406 -0.910156 0.703125 -1.109375 C 0.710938 -1.316406 0.71875 -1.523438 0.71875 -1.734375 C 0.726562 -1.941406 0.734375 -2.109375 0.734375 -2.234375 L 0.734375 -3.46875 C 0.734375 -3.6875 0.734375 -3.894531 0.734375 -4.09375 C 0.734375 -4.300781 0.726562 -4.492188 0.71875 -4.671875 C 0.71875 -4.847656 0.710938 -5.015625 0.703125 -5.171875 C 0.703125 -5.335938 0.695312 -5.488281 0.6875 -5.625 L -0.03125 -5.71875 L -0.046875 -6.203125 L 2.0625 -6.734375 L 2.375 -6.546875 C 2.363281 -6.359375 2.351562 -6.171875 2.34375 -5.984375 C 2.332031 -5.804688 2.320312 -5.609375 2.3125 -5.390625 C 2.300781 -5.179688 2.289062 -4.929688 2.28125 -4.640625 C 2.269531 -4.347656 2.265625 -3.988281 2.265625 -3.5625 L 2.296875 -3.546875 C 2.484375 -3.816406 2.703125 -4.019531 2.953125 -4.15625 C 3.203125 -4.300781 3.460938 -4.375 3.734375 -4.375 C 4.023438 -4.375 4.28125 -4.300781 4.5 -4.15625 C 4.726562 -4.007812 4.90625 -3.800781 5.03125 -3.53125 C 5.15625 -3.269531 5.21875 -2.957031 5.21875 -2.59375 L 5.21875 -1.625 C 5.21875 -1.414062 5.21875 -1.210938 5.21875 -1.015625 C 5.226562 -0.828125 5.238281 -0.710938 5.25 -0.671875 L 5.859375 -0.5 L 5.828125 0 L 3.125 0 L 3.09375 -0.5 L 3.625 -0.671875 C 3.632812 -0.753906 3.640625 -0.859375 3.640625 -0.984375 C 3.648438 -1.109375 3.65625 -1.234375 3.65625 -1.359375 C 3.664062 -1.484375 3.671875 -1.585938 3.671875 -1.671875 L 3.671875 -2.328125 C 3.671875 -2.554688 3.640625 -2.738281 3.578125 -2.875 C 3.515625 -3.019531 3.429688 -3.125 3.328125 -3.1875 C 3.222656 -3.25 3.101562 -3.28125 2.96875 -3.28125 C 2.84375 -3.28125 2.722656 -3.253906 2.609375 -3.203125 C 2.492188 -3.148438 2.390625 -3.070312 2.296875 -2.96875 L 2.296875 -1.5625 C 2.296875 -1.363281 2.300781 -1.175781 2.3125 -1 C 2.320312 -0.832031 2.332031 -0.722656 2.34375 -0.671875 L 2.890625 -0.5 L 2.875 0 Z M 0.109375 0 "/></g></g></g><g fill="#737373" fill-opacity="1"><g transform="translate(93.457407, 57.760199)"><g><path d="M 0.125 0 L 0.09375 -0.5 L 0.6875 -0.671875 C 0.695312 -0.703125 0.703125 -0.773438 0.703125 -0.890625 C 0.710938 -1.003906 0.71875 -1.128906 0.71875 -1.265625 C 0.726562 -1.398438 0.734375 -1.515625 0.734375 -1.609375 L 0.75 -2.328125 C 0.75 -2.492188 0.742188 -2.632812 0.734375 -2.75 C 0.722656 -2.863281 0.703125 -3.019531 0.671875 -3.21875 L 0.0625 -3.359375 L 0.0625 -3.859375 L 1.953125 -4.359375 L 2.28125 -4.171875 L 2.25 -3.40625 L 2.265625 -3.40625 C 2.441406 -3.757812 2.625 -4 2.8125 -4.125 C 3 -4.257812 3.203125 -4.328125 3.421875 -4.328125 C 3.609375 -4.328125 3.773438 -4.269531 3.921875 -4.15625 C 4.078125 -4.050781 4.15625 -3.875 4.15625 -3.625 C 4.15625 -3.394531 4.070312 -3.207031 3.90625 -3.0625 C 3.75 -2.914062 3.566406 -2.84375 3.359375 -2.84375 C 3.179688 -2.84375 3.023438 -2.867188 2.890625 -2.921875 C 2.753906 -2.984375 2.597656 -3.109375 2.421875 -3.296875 L 2.765625 -3.28125 C 2.671875 -3.21875 2.585938 -3.140625 2.515625 -3.046875 C 2.441406 -2.953125 2.378906 -2.859375 2.328125 -2.765625 L 2.34375 -2.0625 C 2.34375 -1.789062 2.34375 -1.550781 2.34375 -1.34375 C 2.351562 -1.144531 2.359375 -0.988281 2.359375 -0.875 C 2.367188 -0.769531 2.375 -0.707031 2.375 -0.6875 L 3.21875 -0.515625 L 3.1875 0 Z M 0.125 0 "/></g></g></g><g fill="#737373" fill-opacity="1"><g transform="translate(97.729943, 57.760199)"><g><path d="M 0.09375 0 L 0.0625 -0.515625 L 0.6875 -0.671875 C 0.695312 -0.703125 0.703125 -0.769531 0.703125 -0.875 C 0.710938 -0.988281 0.71875 -1.113281 0.71875 -1.25 C 0.726562 -1.382812 0.734375 -1.503906 0.734375 -1.609375 L 0.75 -2.328125 C 0.75 -2.503906 0.742188 -2.648438 0.734375 -2.765625 C 0.722656 -2.878906 0.703125 -3.03125 0.671875 -3.21875 L 0.03125 -3.359375 L 0.03125 -3.859375 L 2.046875 -4.359375 L 2.375 -4.171875 C 2.351562 -3.953125 2.335938 -3.734375 2.328125 -3.515625 C 2.328125 -3.304688 2.328125 -3.066406 2.328125 -2.796875 L 2.328125 -1.5625 C 2.328125 -1.40625 2.328125 -1.226562 2.328125 -1.03125 C 2.335938 -0.84375 2.347656 -0.722656 2.359375 -0.671875 L 2.984375 -0.515625 L 2.953125 0 Z M 1.890625 -4.9375 C 1.566406 -4.9375 1.316406 -5.03125 1.140625 -5.21875 C 0.972656 -5.40625 0.890625 -5.617188 0.890625 -5.859375 C 0.890625 -6.097656 0.972656 -6.3125 1.140625 -6.5 C 1.316406 -6.6875 1.566406 -6.78125 1.890625 -6.78125 C 2.222656 -6.78125 2.46875 -6.6875 2.625 -6.5 C 2.789062 -6.3125 2.875 -6.097656 2.875 -5.859375 C 2.875 -5.617188 2.789062 -5.40625 2.625 -5.21875 C 2.46875 -5.03125 2.222656 -4.9375 1.890625 -4.9375 Z M 1.890625 -4.9375 "/></g></g></g><g fill="#737373" fill-opacity="1"><g transform="translate(100.799625, 57.760199)"><g><path d="M 1.890625 0.078125 C 1.597656 0.078125 1.3125 0.046875 1.03125 -0.015625 C 0.75 -0.078125 0.515625 -0.160156 0.328125 -0.265625 L 0.28125 -1.46875 L 1 -1.46875 L 1.203125 -0.765625 C 1.460938 -0.628906 1.71875 -0.5625 1.96875 -0.5625 C 2.144531 -0.5625 2.273438 -0.59375 2.359375 -0.65625 C 2.441406 -0.71875 2.484375 -0.800781 2.484375 -0.90625 C 2.484375 -1.03125 2.425781 -1.132812 2.3125 -1.21875 C 2.207031 -1.300781 1.984375 -1.40625 1.640625 -1.53125 C 1.171875 -1.695312 0.835938 -1.890625 0.640625 -2.109375 C 0.453125 -2.328125 0.359375 -2.597656 0.359375 -2.921875 C 0.359375 -3.203125 0.445312 -3.453125 0.625 -3.671875 C 0.800781 -3.890625 1.046875 -4.0625 1.359375 -4.1875 C 1.679688 -4.3125 2.050781 -4.375 2.46875 -4.375 C 2.6875 -4.375 2.910156 -4.347656 3.140625 -4.296875 C 3.367188 -4.253906 3.554688 -4.203125 3.703125 -4.140625 L 3.828125 -2.953125 L 3.09375 -2.953125 L 2.890625 -3.640625 C 2.828125 -3.679688 2.75 -3.710938 2.65625 -3.734375 C 2.5625 -3.753906 2.476562 -3.765625 2.40625 -3.765625 C 2.238281 -3.765625 2.101562 -3.726562 2 -3.65625 C 1.894531 -3.59375 1.84375 -3.5 1.84375 -3.375 C 1.84375 -3.238281 1.910156 -3.125 2.046875 -3.03125 C 2.179688 -2.9375 2.4375 -2.820312 2.8125 -2.6875 C 3.238281 -2.53125 3.539062 -2.347656 3.71875 -2.140625 C 3.90625 -1.929688 4 -1.675781 4 -1.375 C 4 -0.9375 3.804688 -0.582031 3.421875 -0.3125 C 3.035156 -0.0507812 2.523438 0.078125 1.890625 0.078125 Z M 1.890625 0.078125 "/></g></g></g><g fill="#737373" fill-opacity="1"><g transform="translate(104.975933, 57.760199)"><g><path d="M 2.546875 0.078125 C 2.109375 0.078125 1.71875 -0.0195312 1.375 -0.21875 C 1.039062 -0.414062 0.78125 -0.679688 0.59375 -1.015625 C 0.40625 -1.347656 0.3125 -1.707031 0.3125 -2.09375 C 0.3125 -2.53125 0.421875 -2.921875 0.640625 -3.265625 C 0.859375 -3.609375 1.140625 -3.878906 1.484375 -4.078125 C 1.835938 -4.273438 2.210938 -4.375 2.609375 -4.375 C 3.191406 -4.375 3.648438 -4.195312 3.984375 -3.84375 C 4.328125 -3.5 4.5 -3.039062 4.5 -2.46875 L 4.5 -2.203125 L 1.703125 -2.203125 L 1.703125 -2.75 L 3.34375 -2.75 L 3.171875 -2.453125 L 3.171875 -2.875 C 3.171875 -3.132812 3.113281 -3.34375 3 -3.5 C 2.894531 -3.664062 2.738281 -3.75 2.53125 -3.75 C 2.394531 -3.75 2.269531 -3.707031 2.15625 -3.625 C 2.050781 -3.550781 1.96875 -3.429688 1.90625 -3.265625 C 1.851562 -3.109375 1.828125 -2.90625 1.828125 -2.65625 L 1.828125 -2.40625 C 1.828125 -2.007812 1.941406 -1.675781 2.171875 -1.40625 C 2.398438 -1.144531 2.71875 -1.015625 3.125 -1.015625 C 3.34375 -1.015625 3.539062 -1.054688 3.71875 -1.140625 C 3.90625 -1.222656 4.078125 -1.351562 4.234375 -1.53125 L 4.5625 -1.21875 C 4.382812 -0.800781 4.113281 -0.476562 3.75 -0.25 C 3.394531 -0.03125 2.992188 0.078125 2.546875 0.078125 Z M 2.546875 0.078125 "/></g></g></g><g fill="#737373" fill-opacity="1"><g transform="translate(109.758479, 57.760199)"><g><path d="M 0.09375 0 L 0.0625 -0.515625 L 0.6875 -0.671875 C 0.6875 -0.765625 0.691406 -0.910156 0.703125 -1.109375 C 0.710938 -1.316406 0.71875 -1.523438 0.71875 -1.734375 C 0.726562 -1.941406 0.734375 -2.109375 0.734375 -2.234375 L 0.734375 -3.46875 C 0.734375 -3.675781 0.734375 -3.878906 0.734375 -4.078125 C 0.734375 -4.273438 0.726562 -4.460938 0.71875 -4.640625 C 0.71875 -4.828125 0.710938 -5 0.703125 -5.15625 C 0.703125 -5.320312 0.695312 -5.476562 0.6875 -5.625 L -0.03125 -5.71875 L -0.046875 -6.203125 L 2.078125 -6.734375 L 2.390625 -6.546875 C 2.378906 -6.285156 2.367188 -6.03125 2.359375 -5.78125 C 2.347656 -5.53125 2.34375 -5.25 2.34375 -4.9375 C 2.34375 -4.625 2.34375 -4.234375 2.34375 -3.765625 L 2.328125 -2.453125 C 2.328125 -1.953125 2.328125 -1.550781 2.328125 -1.25 C 2.335938 -0.945312 2.351562 -0.753906 2.375 -0.671875 L 3 -0.515625 L 2.96875 0 Z M 0.09375 0 "/></g></g></g><g fill="#737373" fill-opacity="1"><g transform="translate(112.828162, 57.760199)"><g><path d="M 1.8125 0.078125 C 1.5 0.078125 1.226562 0.0078125 1 -0.125 C 0.78125 -0.269531 0.609375 -0.4375 0.484375 -0.625 C 0.367188 -0.820312 0.3125 -1.003906 0.3125 -1.171875 C 0.3125 -1.421875 0.382812 -1.625 0.53125 -1.78125 C 0.675781 -1.945312 0.894531 -2.066406 1.1875 -2.140625 L 2.734375 -2.5625 L 2.734375 -2.796875 C 2.734375 -2.929688 2.691406 -3.054688 2.609375 -3.171875 C 2.535156 -3.285156 2.429688 -3.378906 2.296875 -3.453125 C 2.171875 -3.535156 2.039062 -3.578125 1.90625 -3.578125 C 1.832031 -3.578125 1.78125 -3.554688 1.75 -3.515625 C 1.71875 -3.472656 1.695312 -3.398438 1.6875 -3.296875 L 1.625 -2.59375 C 1.25 -2.519531 0.941406 -2.53125 0.703125 -2.625 C 0.472656 -2.71875 0.359375 -2.878906 0.359375 -3.109375 C 0.359375 -3.253906 0.429688 -3.394531 0.578125 -3.53125 C 0.734375 -3.675781 0.921875 -3.804688 1.140625 -3.921875 C 1.359375 -4.046875 1.570312 -4.148438 1.78125 -4.234375 C 2 -4.316406 2.171875 -4.363281 2.296875 -4.375 C 2.929688 -4.375 3.429688 -4.238281 3.796875 -3.96875 C 4.160156 -3.707031 4.335938 -3.34375 4.328125 -2.875 L 4.296875 -1.71875 C 4.296875 -1.5 4.300781 -1.34375 4.3125 -1.25 C 4.332031 -1.15625 4.359375 -1.078125 4.390625 -1.015625 L 5.03125 -0.90625 L 5.03125 -0.421875 L 4.296875 -0.09375 C 4.179688 -0.0390625 4.066406 0 3.953125 0.03125 C 3.835938 0.0625 3.722656 0.078125 3.609375 0.078125 C 3.316406 0.078125 3.113281 -0.0625 3 -0.34375 L 2.78125 -0.828125 L 3.015625 -0.765625 C 2.828125 -0.515625 2.625 -0.3125 2.40625 -0.15625 C 2.195312 0 2 0.078125 1.8125 0.078125 Z M 2.453125 -0.96875 C 2.492188 -0.96875 2.539062 -0.972656 2.59375 -0.984375 C 2.65625 -1.003906 2.707031 -1.03125 2.75 -1.0625 L 2.75 -1.96875 L 2.375 -1.9375 C 2.207031 -1.9375 2.085938 -1.894531 2.015625 -1.8125 C 1.953125 -1.738281 1.921875 -1.644531 1.921875 -1.53125 C 1.921875 -1.382812 1.972656 -1.253906 2.078125 -1.140625 C 2.191406 -1.023438 2.316406 -0.96875 2.453125 -0.96875 Z M 2.453125 -0.96875 "/></g></g></g><g fill="#737373" fill-opacity="1"><g transform="translate(117.860901, 57.760199)"><g/></g></g><g fill="#737373" fill-opacity="1"><g transform="translate(119.785467, 57.760199)"><g><path d="M 2.671875 -4.9375 C 2.648438 -4.914062 2.632812 -4.828125 2.625 -4.671875 C 2.625 -4.523438 2.617188 -4.34375 2.609375 -4.125 C 2.597656 -3.90625 2.59375 -3.675781 2.59375 -3.4375 L 2.625 0.03125 C 2.625 0.414062 2.539062 0.75 2.375 1.03125 C 2.207031 1.320312 1.972656 1.546875 1.671875 1.703125 C 1.378906 1.867188 1.039062 1.953125 0.65625 1.953125 C 0.195312 1.953125 -0.171875 1.867188 -0.453125 1.703125 C -0.742188 1.546875 -0.890625 1.332031 -0.890625 1.0625 C -0.890625 0.882812 -0.832031 0.738281 -0.71875 0.625 C -0.613281 0.519531 -0.488281 0.46875 -0.34375 0.46875 C -0.195312 0.46875 -0.0664062 0.5 0.046875 0.5625 C 0.171875 0.625 0.300781 0.71875 0.4375 0.84375 L 1.234375 1.578125 L 0.578125 1.34375 C 0.722656 1.363281 0.820312 1.351562 0.875 1.3125 C 0.9375 1.269531 0.972656 1.160156 0.984375 0.984375 C 1.003906 0.816406 1.015625 0.546875 1.015625 0.171875 L 0.984375 -3.46875 C 0.984375 -3.675781 0.976562 -3.882812 0.96875 -4.09375 C 0.96875 -4.3125 0.960938 -4.5 0.953125 -4.65625 C 0.941406 -4.820312 0.929688 -4.921875 0.921875 -4.953125 L 0.21875 -5.109375 L 0.25 -5.65625 L 3.265625 -5.65625 L 3.296875 -5.109375 Z M 2.671875 -4.9375 "/></g></g></g><g fill="#737373" fill-opacity="1"><g transform="translate(123.384405, 57.760199)"><g><path d="M 2.546875 0.078125 C 2.109375 0.078125 1.71875 -0.0195312 1.375 -0.21875 C 1.039062 -0.414062 0.78125 -0.679688 0.59375 -1.015625 C 0.40625 -1.347656 0.3125 -1.707031 0.3125 -2.09375 C 0.3125 -2.53125 0.421875 -2.921875 0.640625 -3.265625 C 0.859375 -3.609375 1.140625 -3.878906 1.484375 -4.078125 C 1.835938 -4.273438 2.210938 -4.375 2.609375 -4.375 C 3.191406 -4.375 3.648438 -4.195312 3.984375 -3.84375 C 4.328125 -3.5 4.5 -3.039062 4.5 -2.46875 L 4.5 -2.203125 L 1.703125 -2.203125 L 1.703125 -2.75 L 3.34375 -2.75 L 3.171875 -2.453125 L 3.171875 -2.875 C 3.171875 -3.132812 3.113281 -3.34375 3 -3.5 C 2.894531 -3.664062 2.738281 -3.75 2.53125 -3.75 C 2.394531 -3.75 2.269531 -3.707031 2.15625 -3.625 C 2.050781 -3.550781 1.96875 -3.429688 1.90625 -3.265625 C 1.851562 -3.109375 1.828125 -2.90625 1.828125 -2.65625 L 1.828125 -2.40625 C 1.828125 -2.007812 1.941406 -1.675781 2.171875 -1.40625 C 2.398438 -1.144531 2.71875 -1.015625 3.125 -1.015625 C 3.34375 -1.015625 3.539062 -1.054688 3.71875 -1.140625 C 3.90625 -1.222656 4.078125 -1.351562 4.234375 -1.53125 L 4.5625 -1.21875 C 4.382812 -0.800781 4.113281 -0.476562 3.75 -0.25 C 3.394531 -0.03125 2.992188 0.078125 2.546875 0.078125 Z M 2.546875 0.078125 "/></g></g></g><g fill="#737373" fill-opacity="1"><g transform="translate(128.166951, 57.760199)"><g><path d="M 0.09375 0 L 0.0625 -0.515625 L 0.6875 -0.671875 C 0.6875 -0.765625 0.691406 -0.910156 0.703125 -1.109375 C 0.710938 -1.316406 0.71875 -1.523438 0.71875 -1.734375 C 0.726562 -1.941406 0.734375 -2.109375 0.734375 -2.234375 L 0.734375 -3.46875 C 0.734375 -3.675781 0.734375 -3.878906 0.734375 -4.078125 C 0.734375 -4.273438 0.726562 -4.460938 0.71875 -4.640625 C 0.71875 -4.828125 0.710938 -5 0.703125 -5.15625 C 0.703125 -5.320312 0.695312 -5.476562 0.6875 -5.625 L -0.03125 -5.71875 L -0.046875 -6.203125 L 2.078125 -6.734375 L 2.390625 -6.546875 C 2.378906 -6.285156 2.367188 -6.03125 2.359375 -5.78125 C 2.347656 -5.53125 2.34375 -5.25 2.34375 -4.9375 C 2.34375 -4.625 2.34375 -4.234375 2.34375 -3.765625 L 2.328125 -2.453125 C 2.328125 -1.953125 2.328125 -1.550781 2.328125 -1.25 C 2.335938 -0.945312 2.351562 -0.753906 2.375 -0.671875 L 3 -0.515625 L 2.96875 0 Z M 0.09375 0 "/></g></g></g></svg>